<svg xmlns="http://www.w3.org/2000/svg" xmlns:xlink="http://www.w3.org/1999/xlink" viewBox="0 0 1920 540"><defs><style>.cls-1{fill:#bfffa1;}.cls-2{fill:#01682b;}.cls-3{fill:url(#무제_그라디언트_56);}.cls-4{font-size:100px;font-family:NanumBarunGothic;}.cls-4,.cls-5{fill:#236600;}.cls-5{font-size:32px;font-family:NanumBarunGothicLight, NanumBarunGothic;}</style><linearGradient id="무제_그라디언트_56" y1="270" x2="1920" y2="270" gradientUnits="userSpaceOnUse"><stop offset="0" stop-color="#fff" stop-opacity="0"/><stop offset="0.45" stop-color="#bfffa1"/></linearGradient></defs><g id="레이어_2" data-name="레이어 2"><g id="배너"><rect class="cls-1" y="0.14" width="1920" height="539.86"/><g id="Out_line" data-name="Out line"><path class="cls-2" d="M156.93,149.94l31.35-34a8.33,8.33,0,0,0-.47-11.78,7.29,7.29,0,0,0-.81-.66L168.42,90.25a8.38,8.38,0,0,0-9.5-.15L133.79,107a9.72,9.72,0,0,1-11-.16l-8.53-6.1a5,5,0,0,0-7,1.16L101.44,110a1.65,1.65,0,0,0,.38,2.32h0l3.85,2.75L78.45,143a4.22,4.22,0,0,0,5.81,6.11l30.85-27.23,5.14,3.68L93,153.37a4.22,4.22,0,0,0,5.81,6.11l30.85-27.22,5.31,3.8-15.8,38a4.22,4.22,0,0,0,7.67,3.53l17.58-34.76,1.41,1-15.8,38a4.22,4.22,0,0,0,7.66,3.52l17.65-34.89A1.66,1.66,0,0,0,156.93,149.94ZM117.72,107.3l3.11,2.22a13,13,0,0,0,14.81.22l25.14-16.87a5,5,0,0,1,5.7.09l18.58,13.29a5,5,0,0,1,1.16,7,6,6,0,0,1-.39.49h0l-15.45,16.73a9.67,9.67,0,0,1-10.67,2.43,13,13,0,0,0,7.7-4.05l11.45-12.4-2.45-2.27L165,126.56a9.68,9.68,0,0,1-12.73,1.31,5,5,0,0,0-7,1.16l-1.14,1.59a5,5,0,0,0-1.19-1.2L115.78,110a4.75,4.75,0,0,0-1.52-.73l1.14-1.59A1.67,1.67,0,0,1,117.72,107.3Zm30.81,34.33,4.86-6.78a1.66,1.66,0,0,1,2.32-.39,13,13,0,0,0,8.79,2.36l-9,9.78Zm3.35-9.91a4.89,4.89,0,0,0-1.21,1.19l-4.85,6.78-2.71-1.94L148,131a1.68,1.68,0,0,1,2.33-.39Zm-11.49,4.09-29.84-21.34,1-1.36a1.65,1.65,0,0,1,2.32-.38L141,132.13a1.65,1.65,0,0,1,.38,2.32Zm-30.42-32a1.68,1.68,0,0,1,2.33-.39l1.59,1.14a4.89,4.89,0,0,0-1.21,1.19l-4.85,6.78-2.71-1.94ZM82.05,146.56a.88.88,0,0,1-1.21-1.28L108.41,117l3.92,2.8ZM96.63,157a.87.87,0,0,1-1.24-.07.88.88,0,0,1,0-1.21L123,127.47l3.92,2.8Zm27.26,19.08a.88.88,0,0,1-1.61-.73l15.51-37.28,3.91,2.8Zm10.28,8.22a.87.87,0,0,1-1.07-.64.86.86,0,0,1,0-.55l15.5-37.28,3.92,2.8-17.82,35.21a.85.85,0,0,1-.57.46Z"/></g><path class="cls-2" d="M229.24,31a3.61,3.61,0,1,0,4.25,2.83A3.61,3.61,0,0,0,229.24,31Zm.94,4.72a1.2,1.2,0,1,1,.95-1.42A1.2,1.2,0,0,1,230.18,35.73Z"/><path class="cls-2" d="M274.13,22a3.61,3.61,0,1,0,4.25,2.83A3.61,3.61,0,0,0,274.13,22Zm.94,4.72a1.2,1.2,0,1,1,.95-1.42A1.21,1.21,0,0,1,275.07,26.76Z"/><path class="cls-2" d="M283.1,23.93a8.43,8.43,0,0,0-9.92-6.62l-.14,0a8.53,8.53,0,0,0-6.45,10l.79,4A60.43,60.43,0,0,0,239,37l-.81-4.08a8.44,8.44,0,0,0-9.92-6.62l-.32.07A8.43,8.43,0,0,0,230.4,43l1,4.81A4.82,4.82,0,0,0,237,51.55l.71,3.55a1.21,1.21,0,0,0,1.42.94l3.54-.71a1.2,1.2,0,0,0,.93-.86L244.85,50,267,45.56l2.85,3.67a1.21,1.21,0,0,0,1.19.44l3.54-.71a1.2,1.2,0,0,0,1-1.42L274.83,44a4.82,4.82,0,0,0,3.78-5.67l-1-4.8A8.44,8.44,0,0,0,283.1,23.93ZM241.5,53.12l-1.63.32-.47-2.36,2.81-.56Zm31.44-6.28-1.63.32L269.66,45l2.81-.57ZM276,31.48a1.21,1.21,0,0,0-.94,1.42l1.18,5.91a2.41,2.41,0,0,1-1.89,2.83l-37.8,7.55a2.4,2.4,0,0,1-2.83-1.89l-1.18-5.9a1.21,1.21,0,0,0-1.42-.95A6,6,0,0,1,224,35.73c0-.08,0-.15,0-.23a6,6,0,0,1,11.8-2.36,1.89,1.89,0,0,1,0,.23l1,4.81a20.64,20.64,0,0,0-2.7,1.83l1.57,1.83c.05,0,5.57-4.64,17.65-7.05s18.93-.29,19-.27l.75-2.29a19.7,19.7,0,0,0-3.19-.66L269,26.88a6.11,6.11,0,0,1,4.6-7.18,6,6,0,1,1,2.57,11.76Z"/><path class="cls-2" d="M227.82,17.78A2.41,2.41,0,0,1,229.71,15l37.8-7.56a2.42,2.42,0,0,1,2.84,1.89l1.18,5.91,2.36-.47-1.18-5.91A4.82,4.82,0,0,0,267,5l-37.8,7.56a4.81,4.81,0,0,0-3.78,5.66l1.18,5.91,2.36-.47Z"/><path class="cls-2" d="M242.47,17.31l2.36-.47.48,2.36-2.37.47Z"/><path class="cls-2" d="M249.56,22l2.36-.47.47,2.36L250,24.4Z"/><path class="cls-2" d="M237.75,24.4l2.36-.48.47,2.36-2.36.48Z"/><path class="cls-2" d="M244.83,29.12l2.36-.47.48,2.36-2.37.47Z"/><path class="cls-2" d="M254.28,15l2.37-.47.47,2.36-2.37.47Z"/><path class="cls-2" d="M261.37,19.67l2.36-.47.47,2.36-2.36.48Z"/><path class="cls-2" d="M256.64,26.76l2.37-.47.47,2.36-2.36.47Z"/><path class="cls-2" d="M899.46,248.72a3.62,3.62,0,1,0,2.42,4.5A3.62,3.62,0,0,0,899.46,248.72Zm-1.38,4.62a1.21,1.21,0,1,1,1.5-.81A1.2,1.2,0,0,1,898.08,253.34Z"/><path class="cls-2" d="M943.31,261.84a3.61,3.61,0,1,0,2.43,4.49A3.62,3.62,0,0,0,943.31,261.84Zm-1.38,4.61a1.2,1.2,0,1,1,1.5-.81A1.2,1.2,0,0,1,941.93,266.45Z"/><path class="cls-2" d="M950.35,267.71a8.43,8.43,0,0,0-5.66-10.49l-.14,0A8.53,8.53,0,0,0,934.16,263L933,266.87a60.4,60.4,0,0,0-27.69-8.28l1.19-4a8.43,8.43,0,0,0-5.66-10.49l-.32-.09a8.43,8.43,0,0,0-5.64,15.81l-1.41,4.7a4.83,4.83,0,0,0,3.24,6l-1,3.46a1.21,1.21,0,0,0,.81,1.5l3.46,1a1.2,1.2,0,0,0,1.22-.33l3.18-3.38L926,279.29l.8,4.57a1.19,1.19,0,0,0,.84.94l3.46,1a1.2,1.2,0,0,0,1.5-.81l1-3.46a4.82,4.82,0,0,0,6-3.23l1.41-4.7A8.43,8.43,0,0,0,950.35,267.71ZM899.92,274l-1.6-.48.69-2.3,2.75.82Zm30.72,9.19-1.6-.48-.46-2.65,2.75.82Zm9.91-12.12a1.2,1.2,0,0,0-1.5.81l-1.73,5.76a2.4,2.4,0,0,1-3,1.62l-36.93-11a2.41,2.41,0,0,1-1.62-3l1.72-5.77a1.2,1.2,0,0,0-.8-1.5,6,6,0,0,1-4.05-7.49c0-.08.05-.15.07-.23a6,6,0,0,1,11.54,3.45c0,.08,0,.15-.07.23l-1.4,4.7a19.14,19.14,0,0,0-3.24.36l.53,2.35c.06,0,7.09-1.49,18.89,2S935.83,272,935.88,272l1.73-1.67a19.23,19.23,0,0,0-2.51-2.08l1.37-4.58a6.12,6.12,0,0,1,7.43-4.19,6,6,0,1,1-3.25,11.6Z"/><path class="cls-2" d="M904.41,236.38a2.41,2.41,0,0,1,3-1.62l36.93,11a2.42,2.42,0,0,1,1.61,3l-1.72,5.77,2.31.69,1.72-5.77a4.82,4.82,0,0,0-3.23-6L908.1,232.45a4.83,4.83,0,0,0-6,3.24l-1.73,5.77,2.31.69Z"/><path class="cls-2" d="M917.57,242.83l2.31.69-.7,2.3-2.3-.69Z"/><path class="cls-2" d="M921.61,250.32l2.31.69-.69,2.31-2.31-.69Z"/><path class="cls-2" d="M910.07,246.87l2.31.69-.69,2.31-2.31-.69Z"/><path class="cls-2" d="M914.12,254.36l2.3.69-.69,2.31-2.31-.69Z"/><path class="cls-2" d="M929.11,246.28l2.31.69-.69,2.3-2.31-.69Z"/><path class="cls-2" d="M933.15,253.77l2.31.69-.69,2.31-2.31-.69Z"/><path class="cls-2" d="M925.66,257.81l2.3.69-.69,2.31-2.3-.69Z"/><path class="cls-2" d="M16.34,465.07a3.62,3.62,0,1,0,2.43,4.5A3.63,3.63,0,0,0,16.34,465.07ZM15,469.69a1.21,1.21,0,1,1,1.5-.81A1.2,1.2,0,0,1,15,469.69Z"/><path class="cls-2" d="M60.2,478.19a3.61,3.61,0,1,0,2.42,4.5A3.61,3.61,0,0,0,60.2,478.19Zm-1.39,4.61a1.2,1.2,0,1,1,1.5-.81A1.21,1.21,0,0,1,58.81,482.8Z"/><path class="cls-2" d="M67.24,484.07a8.44,8.44,0,0,0-5.66-10.5l-.14,0a8.54,8.54,0,0,0-10.39,5.82l-1.16,3.87a55.6,55.6,0,0,0-13.35-5.82,55.18,55.18,0,0,0-14.35-2.46l1.19-4a8.42,8.42,0,0,0-5.66-10.49l-.31-.09a8.43,8.43,0,0,0-5.65,15.82l-1.4,4.69a4.82,4.82,0,0,0,3.23,6l-1,3.46a1.21,1.21,0,0,0,.81,1.5l3.47,1a1.19,1.19,0,0,0,1.22-.33l3.18-3.38,21.65,6.48.8,4.57a1.23,1.23,0,0,0,.84,1l3.47,1a1.2,1.2,0,0,0,1.49-.81l1-3.46a4.83,4.83,0,0,0,6-3.23l1.4-4.7A8.45,8.45,0,0,0,67.24,484.07ZM16.8,490.35l-1.59-.48.69-2.3,2.75.82Zm30.72,9.19-1.59-.48-.47-2.65,2.75.82Zm9.91-12.12a1.21,1.21,0,0,0-1.5.81L54.21,494a2.41,2.41,0,0,1-3,1.61l-36.93-11a2.41,2.41,0,0,1-1.62-3l1.73-5.77a1.21,1.21,0,0,0-.81-1.5,6,6,0,0,1-4-7.49,1.42,1.42,0,0,1,.07-.22A6,6,0,0,1,21.14,470l-.06.23L19.67,475a19.33,19.33,0,0,0-3.24.36l.53,2.35c.07,0,7.09-1.49,18.89,2s16.86,8.61,16.91,8.66l1.73-1.67A19.72,19.72,0,0,0,52,484.63L53.36,480a6.11,6.11,0,0,1,7.43-4.19,6,6,0,0,1-3.26,11.6Z"/><path class="cls-2" d="M21.29,452.73a2.42,2.42,0,0,1,3-1.62l36.93,11a2.42,2.42,0,0,1,1.62,3l-1.73,5.77,2.31.69,1.73-5.77a4.81,4.81,0,0,0-3.24-6L25,448.8A4.83,4.83,0,0,0,19,452l-1.72,5.77,2.31.69Z"/><path class="cls-2" d="M34.45,459.18l2.31.69-.69,2.3-2.31-.69Z"/><path class="cls-2" d="M38.5,466.67l2.3.69-.69,2.31-2.3-.69Z"/><path class="cls-2" d="M27,463.22l2.3.69-.69,2.31-2.31-.69Z"/><path class="cls-2" d="M31,470.71l2.31.69-.69,2.31L30.31,473Z"/><path class="cls-2" d="M46,462.63l2.31.69-.69,2.31-2.31-.69Z"/><path class="cls-2" d="M50,470.12l2.3.69-.69,2.31-2.3-.69Z"/><path class="cls-2" d="M42.54,474.17l2.31.69-.69,2.3-2.31-.69Z"/><path class="cls-2" d="M254.85,411.06l-4.33-13.52a3.86,3.86,0,0,0-4.85-2.5l-47.41,15.18a3.86,3.86,0,0,0-2.5,4.85l4.33,13.52a4,4,0,0,0,3.64,7.1L256,419a4,4,0,0,0-1.17-7.89Zm-56.62,3.22a1.27,1.27,0,0,1,.82-1.59l47.41-15.18a1.27,1.27,0,0,1,1.59.82l4.26,13.31L202.5,427.59Zm57,2.19-52.28,16.75a1.45,1.45,0,0,1-.89-2.76l52.29-16.74a1.44,1.44,0,1,1,.88,2.75Z"/><path class="cls-2" d="M253.31,397.82l-1.08.34.8,2.47,1.07-.34c1.4-.45,1.51-.12,1.65.35L261,417.15c.37,1.13,0,2.7-.61,2.91l-59.65,19.1c-.73.23-2.19-.87-2.52-1.9L193,420.74c-.08-.26-.25-.79,1.48-1.35l1.07-.34-.79-2.47-1.07.34a5.67,5.67,0,0,0-2.5,1.45,3.1,3.1,0,0,0-.66,3.16l5.29,16.52a5.8,5.8,0,0,0,2.17,2.81,4.12,4.12,0,0,0,3.62.77l1.07-.34,1.69,5.27,2.47-.79-1.69-5.27,53.72-17.2,1.69,5.27,2.48-.79-1.69-5.28c2.42-.84,2.85-4.15,2.21-6.14l-5.29-16.52C257.83,398.62,256.68,396.74,253.31,397.82Z"/><rect class="cls-2" x="203.8" y="416.2" width="2.77" height="2.6" transform="matrix(0.95, -0.3, 0.3, 0.95, -117.54, 82.46)"/><rect class="cls-2" x="242.86" y="403.66" width="2.94" height="2.6" transform="translate(-111.86 93.8) rotate(-17.76)"/><rect class="cls-2" x="223.41" y="409.92" width="2.77" height="2.6" transform="translate(-114.69 88.14) rotate(-17.76)"/><path class="cls-2" d="M1246.49,169.11l6.67-16.39a4.82,4.82,0,0,0-2.65-6.27L1193,123.07a4.82,4.82,0,0,0-6.27,2.64l-6.67,16.4a5,5,0,0,0-2.2,9.7l63.41,25.78a5,5,0,0,0,5.2-8.48Zm-56.74-42.18a1.58,1.58,0,0,1,2-.86l57.49,23.38a1.57,1.57,0,0,1,.87,2.05l-6.57,16.15-60.41-24.57Zm52.76,47.67-63.41-25.79a1.8,1.8,0,1,1,1.36-3.34l63.41,25.78a1.81,1.81,0,0,1-1.36,3.35Z"/><path class="cls-2" d="M1255.6,155.22l-1.3-.53-1.22,3,1.3.53c1.7.68,1.53,1.09,1.31,1.65l-8.15,20c-.56,1.36-2.14,2.61-2.91,2.29l-72.35-29.42c-.88-.36-1.4-2.58-.89-3.84l8.15-20c.13-.31.39-1,2.5-.11l1.29.53,1.22-3-1.29-.52a7.08,7.08,0,0,0-3.55-.62,3.9,3.9,0,0,0-3.17,2.5l-8.15,20a7.26,7.26,0,0,0-.18,4.42,5.23,5.23,0,0,0,2.85,3.64l1.3.52-2.61,6.4,3,1.22,2.6-6.4,65.16,26.5-2.61,6.39,3,1.22,2.61-6.4c3,1.13,6-1.68,7-4.1l8.15-20C1259.29,159.61,1259.69,156.88,1255.6,155.22Z"/><rect class="cls-2" x="1192.21" y="133.84" width="3.24" height="3.45" transform="translate(618.49 1190.37) rotate(-67.87)"/><rect class="cls-2" x="1239.68" y="153.04" width="3.24" height="3.67" transform="translate(630.2 1246.37) rotate(-67.87)"/><rect class="cls-2" x="1216" y="143.52" width="3.24" height="3.45" transform="translate(624.36 1218.43) rotate(-67.87)"/><path class="cls-2" d="M607.18,361.22l-6.46-13.05a4,4,0,0,0-5.31-1.8L549.63,369a4,4,0,0,0-1.8,5.3l6.46,13.06a4.15,4.15,0,0,0,4.78,6.65l50.5-25a4.15,4.15,0,0,0-2.39-7.83Zm-57,11.92a1.3,1.3,0,0,1,.59-1.74l45.78-22.64a1.3,1.3,0,0,1,1.74.59l6.36,12.86L556.58,386Zm58.16-6.47-50.49,25a1.48,1.48,0,0,1-1.32-2.66l50.5-25a1.49,1.49,0,0,1,1.31,2.67Z"/><path class="cls-2" d="M603.59,348l-1,.51,1.18,2.39,1-.52c1.35-.66,1.51-.34,1.73.1l7.9,16c.53,1.08.44,2.73-.18,3L556.6,398c-.7.35-2.35-.55-2.85-1.55l-7.89-15.95c-.12-.25-.38-.76,1.3-1.59l1-.51L547,376l-1,.51a5.75,5.75,0,0,0-2.32,1.85,3.19,3.19,0,0,0-.19,3.32l7.9,15.95a5.93,5.93,0,0,0,2.62,2.52,4.26,4.26,0,0,0,3.8.23l1-.51,2.51,5.09,2.39-1.18-2.52-5.09L613.09,373l2.52,5.09L618,377l-2.52-5.1c2.33-1.22,2.26-4.64,1.3-6.57l-7.89-15.95C608.31,348.15,606.84,346.42,603.59,348Z"/><rect class="cls-2" x="556.35" y="374.01" width="2.84" height="2.66" transform="translate(-108.59 286.15) rotate(-26.31)"/><rect class="cls-2" x="594.06" y="355.32" width="3.02" height="2.66" transform="translate(-96.38 300.97) rotate(-26.31)"/><rect class="cls-2" x="575.29" y="364.64" width="2.84" height="2.66" transform="translate(-102.47 293.57) rotate(-26.31)"/><path class="cls-2" d="M190.61,485.7a24.13,24.13,0,1,0,24.13,24.13A24.16,24.16,0,0,0,190.61,485.7ZM193.48,528v-3.07h-5.75V528a18.46,18.46,0,0,1-15.23-14.94h3.36V507.3h-3.47a18.45,18.45,0,0,1,15.34-15.64v4.16h5.75v-4.15a18.42,18.42,0,0,1,15.34,15.64H205v5.74h3.74A18.44,18.44,0,0,1,193.48,528Z"/><polygon class="cls-2" points="187.73 500.41 187.73 507.31 178.16 507.31 178.16 513.05 193.48 513.05 193.48 500.41 187.73 500.41"/><path class="cls-2" d="M1006.43,61.34a31.31,31.31,0,1,0,43.78-6.61A31.33,31.33,0,0,0,1006.43,61.34Zm3.82,8,3.9,2.88,4.43-6-4-3a23.92,23.92,0,0,1,28.07-4.52l-3.2,4.34,6,4.42,3.2-4.34a23.89,23.89,0,0,1,4,28.14L1049,88.64l-4.43,6,3.51,2.58a23.91,23.91,0,0,1-27.4,3.87l2.36-3.21-6-4.42-2.36,3.21A23.9,23.9,0,0,1,1010.25,69.35Z"/><polygon class="cls-2" points="1035.88 67.89 1026.15 81.07 1042.14 92.87 1046.56 86.87 1036.57 79.5 1041.87 72.31 1035.88 67.89"/><path class="cls-2" d="M511.53,184.24a24.84,24.84,0,1,0,14.37-32.05A24.87,24.87,0,0,0,511.53,184.24Zm7,.89,3.6-1.37L520,178.24l-3.7,1.41a18.94,18.94,0,0,1,9-20.66l1.52,4,5.53-2.1-1.52-4a19,19,0,0,1,20.48,9.43L548,167.58l2.11,5.52,3.23-1.23a19,19,0,0,1-9.18,19.94L543,188.86,537.5,191l1.13,2.95A19,19,0,0,1,518.51,185.13Z"/><polygon class="cls-2" points="528.53 167.4 533.16 179.55 547.89 173.94 545.78 168.42 536.58 171.92 534.05 165.3 528.53 167.4"/><path class="cls-2" d="M104.22,370h0L93.71,335.81l-2.9.89,10.5,34.21-7.7,2.36,2.3,7.51,18.26-5.6-2.31-7.51L104.22,370Zm6.15,3.14L97.92,377l-.52-1.71,12.45-3.82Z"/><path class="cls-2" d="M74.7,300.77,85,334.37,89.66,333l.74,2.4,2.9-.89-.74-2.4,4.58-1.41-10.32-33.6Zm17.24,23.31-4.58,1.4.9,2.9,4.57-1.4.51,1.66L87,330.58l-8.53-27.8,6.31-1.94,7.13,23.24Z"/><path class="cls-2" d="M287.93,145.53h0l8.65-34.72-2.94-.74L285,144.79l-7.83-1.95-1.89,7.62,18.53,4.62,1.9-7.62-7.77-1.93Zm3.65,5.87L279,148.25l.43-1.73L292,149.67Z"/><path class="cls-2" d="M298.38,71l-8.5,34.11,4.71,1.17L294,108.7l2.95.73.6-2.44,4.65,1.16L310.68,74Zm2.74,28.86-4.65-1.16-.73,2.95,4.65,1.15-.42,1.69-6.41-1.59,7-28.22,6.4,1.6-5.87,23.58Z"/><path class="cls-2" d="M398.58,105.62,455,140.29l24.57-40L423.16,65.65Zm25.91-34.39L474,101.65l-20.33,33.06-49.51-30.42Z"/><path class="cls-2" d="M425.27,74.49l-17.84,29,45.46,27.93,17.84-29Zm26.29,51.38L413,102.18,426.6,80.07l38.55,23.69-13.59,22.11Z"/><rect class="cls-2" x="433.73" y="94.48" width="6.06" height="4.05" transform="translate(-10.47 103.99) rotate(-13.42)"/><rect class="cls-2" x="429.03" y="100.03" width="21.22" height="4.05" transform="translate(-11.68 104.81) rotate(-13.42)"/><rect class="cls-2" x="438.37" y="107.4" width="6.06" height="4.05" transform="translate(-13.34 105.42) rotate(-13.42)"/><path class="cls-2" d="M950.13,452.91l64.41-15.37-10.89-45.63-64.41,15.37Zm-6-42.63,56.53-13.49,9,37.75L953.13,448Z"/><path class="cls-2" d="M947,412l7.91,33.13,51.9-12.39-7.9-33.12Zm54.93,17.74-44,10.5-6-25.24,44-10.5,6,25.24Z"/><rect class="cls-2" x="967.65" y="417.46" width="6.06" height="4.05" transform="translate(104.94 1026.67) rotate(-58.42)"/><rect class="cls-2" x="966.03" y="419.34" width="21.22" height="4.05" transform="translate(106.17 1032.65) rotate(-58.42)"/><rect class="cls-2" x="980.07" y="423.31" width="6.06" height="4.05" transform="translate(105.86 1040.04) rotate(-58.42)"/><path class="cls-2" d="M735.57,63.27l50.81,0,0-36.15-50.82,0Zm3.08-33,44.6,0,0,29.9-44.6,0Z"/><path class="cls-2" d="M740.48,32.08l0,26.24,40.94,0V32.05Zm37.85,23.09-34.72,0,0-20,34.73,0v20Z"/><polygon class="cls-2" points="754.1 42.43 757.39 39.13 759.59 41.34 756.3 44.64 754.1 42.43"/><polygon class="cls-2" points="754.11 49.04 765.61 37.47 767.82 39.68 756.31 51.24 754.11 49.04"/><polygon class="cls-2" points="762.33 49.03 765.62 45.73 767.82 47.93 764.53 51.24 762.33 49.03"/><path class="cls-2" d="M798.35,475.81a.84.84,0,0,0-.67,1,2.49,2.49,0,0,0,3.52,1.81l17-8a2.48,2.48,0,0,0,.86-3.83.83.83,0,1,0-1.29,1.06.81.81,0,0,1,0,1,.79.79,0,0,1-.32.28l-17,8a.77.77,0,0,1-.42.07.83.83,0,0,1-.74-.67.83.83,0,0,0-1-.67Z"/><path class="cls-2" d="M836.05,492.92l-16.82-19.16.4-.18a5.9,5.9,0,0,0,2.34-2,5.83,5.83,0,0,0-.74-7.42l-6.09-6a.83.83,0,0,0-1.18,0,.85.85,0,0,0,0,1.19l6.09,6a4.14,4.14,0,0,1,.52,5.29,4,4,0,0,1-1.67,1.43l-17,8a4.12,4.12,0,0,1-2.16.38,4.17,4.17,0,0,1-3.77-3.76L794.36,459a6.26,6.26,0,0,1,3.55-6.2l2.46-1.17a6.28,6.28,0,0,1,7,1.2l4.17,4.12a.83.83,0,1,0,1.17-1.19l-4.17-4.12a7.94,7.94,0,0,0-8.93-1.52l-2.47,1.17a7.92,7.92,0,0,0-4.49,7.86l1.62,17.69a5.84,5.84,0,0,0,5.27,5.28,5.91,5.91,0,0,0,3-.54h0l2.52,15.26a.82.82,0,0,0,1,.69.57.57,0,0,0,.22-.07.83.83,0,0,0,.47-.89l-2.59-15.73,2.13-1,2.77,26.54a.38.38,0,0,1-.2.35.36.36,0,0,1-.31,0,.37.37,0,0,1-.18-.25l-1.11-6.78a.84.84,0,1,0-1.65.27l1.11,6.78a2,2,0,0,0,1.06,1.46,2,2,0,0,0,2.94-2l-1.32-12.61a.71.71,0,0,0,.1-.14l4.43-9.22,9.95,2.16h0l9.14,9.25a2,2,0,0,0,2.95-2.75ZM808,479.55l2.56.68-.72,1.43-1.66-.36Zm1.7-1.28,2.42-1.14-.79,1.57Zm2.51,2.4,1.46.38-.62,1.3-1.52-.33Zm2.2-1.15-1.43-.38,1.28-2.54,1,1.06Zm-5.27,11-.78-7.44,3.95.85Zm5.59-7.77,1.82-3.8,5.27,5.33Zm20.15,11.6a.32.32,0,0,1-.19.24.33.33,0,0,1-.39-.06l-18.77-19,2.14-1L834.79,494a.33.33,0,0,1,.08.29Z"/><path class="cls-2" d="M191.5,264.21a.85.85,0,0,0-1.12.38,2.5,2.5,0,0,0,1.76,3.55l18.45,3.65a2.54,2.54,0,0,0,1.31-.1,2.5,2.5,0,0,0,1.66-2.48.84.84,0,0,0-1.67.09.83.83,0,0,1-.55.82.79.79,0,0,1-.43,0l-18.45-3.65a1,1,0,0,1-.39-.19.84.84,0,0,1-.19-1,.83.83,0,0,0-.38-1.12Z"/><path class="cls-2" d="M211.63,300.38,209.5,275l.44.09a5.93,5.93,0,0,0,3.07-.22,5.85,5.85,0,0,0,3.83-6.41L215.52,260a.84.84,0,1,0-1.66.26l1.33,8.45a4.18,4.18,0,0,1-2.73,4.57,4.23,4.23,0,0,1-2.2.16l-18.45-3.65a4.22,4.22,0,0,1-2-1,4.18,4.18,0,0,1-.78-5.27l9.22-15.18a6.25,6.25,0,0,1,6.53-2.88l2.68.53a6.26,6.26,0,0,1,4.95,5.15l.91,5.79a.84.84,0,1,0,1.65-.26l-.91-5.79a7.93,7.93,0,0,0-6.27-6.53l-2.68-.53a7.94,7.94,0,0,0-8.29,3.65l-9.22,15.19a5.84,5.84,0,0,0,3.86,8.75h0l-7.06,13.77a.84.84,0,0,0,1.49.76l7.28-14.19,2.32.46L182,295.2a.34.34,0,0,1-.36.16.33.33,0,0,1-.24-.49l3.13-6.12a.82.82,0,0,0-.36-1.12A.83.83,0,0,0,183,288l-3.14,6.11a2,2,0,0,0,3.53,1.95l6.44-10.92a.44.44,0,0,0,.16-.06l9-4.77,6.73,7.65v0l1.85,12.87a2,2,0,0,0,1.61,1.69,2,2,0,0,0,2.4-2.15ZM197,273l1.66,2.07-1.43.72-1.12-1.28Zm2.13,0,2.62.51-1.57.8Zm.6,3.41.94,1.18-1.27.67-1-1.16Zm2.45.39-.93-1.16,2.54-1.28.21,1.48Zm-10.76,5.68,3.8-6.44,2.66,3Zm9.11-2.92,3.72-2,1.07,7.41Zm9.3,21.31a.35.35,0,0,1-.3.08.34.34,0,0,1-.27-.29l-3.8-26.41,2.32.45L210,300.52a.38.38,0,0,1-.11.29Z"/><path class="cls-2" d="M622.06,25.78,539.34,3.56a1.42,1.42,0,0,0-1.75,1l-1.48,5.51a1.44,1.44,0,0,0,1,1.75l-9.63,35.83a1.41,1.41,0,0,0,1,1.75l4.14,1.11a1.42,1.42,0,0,0,1.75-1L544,13.68l45.5,12.22-9.63,35.84a1.42,1.42,0,0,0,1,1.75l27.58,7.41a1.44,1.44,0,0,0,1.75-1l9.63-35.84a1.43,1.43,0,0,0,1.75-1l1.48-5.51A1.43,1.43,0,0,0,622.06,25.78ZM540,6.68l80,21.49-.74,2.75-80-21.48ZM532,47.4,530.61,47l9.27-34.46,1.37.37Zm79.16,8L586.34,48.7l2.59-9.65,24.82,6.67Zm-3.33,12.41L583,61.1l2.6-9.65,24.81,6.67ZM614.49,43l-24.82-6.67,2.6-9.65,24.81,6.67Z"/><path class="cls-2" d="M101.59,19.72,35.89,44.3a1.19,1.19,0,0,0-.69,1.51l1.64,4.37a1.17,1.17,0,0,0,1.51.69L49,79.33a1.18,1.18,0,0,0,1.51.69l3.28-1.23a1.18,1.18,0,0,0,.69-1.51L43.82,48.82,80,35.3,90.61,63.77a1.17,1.17,0,0,0,1.51.68L114,56.26a1.17,1.17,0,0,0,.68-1.5L104.05,26.29a1.16,1.16,0,0,0,.68-1.5l-1.63-4.38A1.19,1.19,0,0,0,101.59,19.72ZM37.8,46.08l63.52-23.76.81,2.19L38.62,48.27ZM51.88,77l-1.1.41L40.54,50.05l1.09-.41Zm56.53-32.38L88.7,52l-2.86-7.66L105.55,37Zm3.69,9.85L92.39,61.85l-2.87-7.66,19.71-7.37Zm-7.37-19.7L85,42.15l-2.87-7.66,19.71-7.38Z"/><path class="cls-2" d="M308.51,487.86a.93.93,0,0,0-.82,1.05l.68,5.65a1,1,0,0,0,1.06.82l2.05-.24,4.37,13.58a1,1,0,0,0,1,.66l4.24-.52a1,1,0,0,0,.82-1.06.93.93,0,0,0-1.05-.82l-3.46.42-4-12.5,20.31-2.48-.89,13.1-3.46.42a1,1,0,0,0-.83,1.06.94.94,0,0,0,1.06.82l4.23-.51a1,1,0,0,0,.83-.88l1-14.24,2.05-.25a.94.94,0,0,0,.82-1.06l-.69-5.64a1,1,0,0,0-1.05-.83L332,485a12.31,12.31,0,0,0,4.46-11,1,1,0,0,0-1.06-.83l-2.82.34a12.35,12.35,0,0,0-9.66,7l-1.23-10.05,1.89-.23a9.49,9.49,0,0,0,8.26-10.56.94.94,0,0,0-1.06-.82l-2.82.34a9.48,9.48,0,0,0-8.26,10.56l.07.57a9.46,9.46,0,0,0-8-2.85l-5.65.69a1,1,0,0,0-.83,1l.35,2.83a9.5,9.5,0,0,0,10.56,8.26l4.71-.58.8,6.59ZM328.16,461l1.82-.22a7.6,7.6,0,0,1-6.66,7.5l-1.83.22A7.62,7.62,0,0,1,328.16,461Zm7.88,25.4.46,3.76-26.36,3.22-.46-3.77Zm-3.26-11.06,1.84-.23a10.45,10.45,0,0,1-9.17,10.67l-1.84.22A10.44,10.44,0,0,1,332.78,475.35Zm-25.28-3.6-.23-1.89,4.71-.57a7.6,7.6,0,0,1,8.45,6.61l.23,1.88-4.71.57A7.59,7.59,0,0,1,307.5,471.75Z"/><circle class="cls-2" cx="325.23" cy="507.4" r="0.95"/><path class="cls-2" d="M1123,32.48a.94.94,0,0,0-1.33.17l-3.51,4.48a1,1,0,0,0,.16,1.33l1.63,1.27-6.52,12.7a.94.94,0,0,0,.26,1.18l3.36,2.63a1,1,0,0,0,1.17-1.5l-2.75-2.14,6-11.68,16.11,12.6-9.9,8.63L1124.92,60a1,1,0,0,0-1.33.16.94.94,0,0,0,.16,1.33l3.36,2.63a1,1,0,0,0,1.21,0l10.76-9.38,1.63,1.27a1,1,0,0,0,1.33-.16l3.5-4.48a.94.94,0,0,0-.16-1.33l-3.79-3a12.36,12.36,0,0,0,11-4.66.94.94,0,0,0-.17-1.33l-2.24-1.75a12.3,12.3,0,0,0-11.76-1.89l6.24-8,1.49,1.17A9.49,9.49,0,0,0,1159.43,29a1,1,0,0,0-.16-1.33L1157,25.9a9.5,9.5,0,0,0-13.31,1.62l-.36.45a9.45,9.45,0,0,0-3.63-7.66l-4.48-3.5a.94.94,0,0,0-1.33.16l-1.76,2.24a9.48,9.48,0,0,0,1.63,13.3l3.73,2.93-4.09,5.22Zm32.88-5.09,1.45,1.13a7.59,7.59,0,0,1-10,.59L1145.84,28A7.6,7.6,0,0,1,1155.86,27.39Zm-12.39,23.53-2.34,3-20.91-16.35,2.34-3ZM1149,40.79l1.46,1.14a10.45,10.45,0,0,1-14,1.07L1135,41.86A10.43,10.43,0,0,1,1149,40.79Zm-15.32-20.41,1.17-1.5,3.73,2.92a7.6,7.6,0,0,1,1.3,10.65l-1.17,1.49L1135,31A7.58,7.58,0,0,1,1133.66,20.38Z"/><circle class="cls-2" cx="1120.97" cy="58.12" r="0.95"/><path class="cls-2" d="M5.31,234.08a.73.73,0,0,0-.58.86l.89,4.32a.74.74,0,0,0,.87.58l1.56-.33,4.24,10.23a.72.72,0,0,0,.82.44l3.25-.67a.74.74,0,0,0-.3-1.44l-2.65.55-3.89-9.41L25.06,236l.13,10.18-2.65.54a.74.74,0,0,0-.57.87.73.73,0,0,0,.87.57l3.24-.66a.73.73,0,0,0,.58-.73l-.14-11.07,1.57-.32a.73.73,0,0,0,.57-.87l-.89-4.31a.73.73,0,0,0-.86-.58l-3.66.75A9.54,9.54,0,0,0,26,221.58a.73.73,0,0,0-.87-.57l-2.16.44a9.54,9.54,0,0,0-7,6l-1.58-7.69,1.44-.29a7.36,7.36,0,0,0,5.72-8.68.73.73,0,0,0-.86-.57l-2.16.44a7.37,7.37,0,0,0-5.73,8.68l.09.44a7.35,7.35,0,0,0-6.35-1.71L2.2,219a.73.73,0,0,0-.57.87L2.07,222a7.37,7.37,0,0,0,8.68,5.72l3.6-.74,1,5Zm13.49-22,1.4-.29A5.9,5.9,0,0,1,15.52,218l-1.4.28A5.88,5.88,0,0,1,18.8,212.1Zm7.68,19.13.59,2.88L6.91,238.25l-.59-2.88Zm-3.21-8.34,1.41-.29a8.11,8.11,0,0,1-6.41,8.82l-1.41.29A8.09,8.09,0,0,1,23.27,222.89Zm-19.76-1.2-.29-1.44,3.6-.74a5.89,5.89,0,0,1,6.94,4.58l.3,1.44-3.6.74A5.89,5.89,0,0,1,3.51,221.69Z"/><circle class="cls-2" cx="19.45" cy="248.13" r="0.73"/><path class="cls-2" d="M722,359.59a1,1,0,0,0-.86,1l.49,5.66a1,1,0,0,0,1,.87l2.05-.18,3.9,13.73a.94.94,0,0,0,1,.69l4.25-.37a.95.95,0,1,0-.16-1.89l-3.47.3-3.58-12.63L747,365l-1.36,13.06-3.47.3a.94.94,0,1,0,.16,1.88l4.26-.36a1,1,0,0,0,.86-.85l1.47-14.2,2.06-.18a.94.94,0,0,0,.86-1l-.49-5.67a.94.94,0,0,0-1-.86l-4.79.41a12.3,12.3,0,0,0,4.84-10.88,1,1,0,0,0-1-.87l-2.83.25a12.32,12.32,0,0,0-9.89,6.64l-.88-10.09,1.89-.16a9.49,9.49,0,0,0,8.63-10.26.94.94,0,0,0-1-.86l-2.83.24a9.49,9.49,0,0,0-8.63,10.26l.05.58a9.45,9.45,0,0,0-7.88-3.13l-5.67.49a1,1,0,0,0-.87,1l.25,2.84a9.49,9.49,0,0,0,10.26,8.62l4.73-.41.57,6.62Zm20.58-26.14,1.83-.16a7.58,7.58,0,0,1-6.92,7.26l-1.83.16A7.59,7.59,0,0,1,742.56,333.45Zm7,25.66.33,3.78-26.45,2.28-.33-3.77Zm-2.87-11.17,1.85-.16A10.44,10.44,0,0,1,739,358.12l-1.85.16A10.44,10.44,0,0,1,746.67,347.94Zm-25.13-4.49-.16-1.89,4.72-.4a7.58,7.58,0,0,1,8.21,6.9l.16,1.89-4.72.4A7.59,7.59,0,0,1,721.54,343.45Z"/><circle class="cls-2" cx="738" cy="379.71" r="0.95"/><path class="cls-2" d="M1136.29,481.72a.79.79,0,0,0,1.08.27l1.12-.68a.78.78,0,0,0,.26-1.08.79.79,0,0,0-1.08-.27l-1.11.68A.79.79,0,0,0,1136.29,481.72Z"/><path class="cls-2" d="M1126.18,465.07a.78.78,0,0,0,1.08.26l1.12-.68a.79.79,0,1,0-.82-1.34l-1.11.68A.78.78,0,0,0,1126.18,465.07Z"/><path class="cls-2" d="M1119.9,471.33a.79.79,0,0,0,1.5.48,4.77,4.77,0,0,1,2-2.71c2.72-1.65,6.73,0,8.94,3.6s1.79,7.94-.93,9.59-6.73,0-8.94-3.6a9.58,9.58,0,0,1-1.39-4.23.79.79,0,1,0-1.57.12,11.1,11.1,0,0,0,1.62,4.93c2.66,4.37,7.63,6.23,11.1,4.13s4.11-7.38,1.46-11.75-7.64-6.24-11.1-4.13A6.27,6.27,0,0,0,1119.9,471.33Z"/><path class="cls-2" d="M1125.42,476.93c1.3,2.13,3.61,3,5.27,2s1.93-3.47.63-5.61-3.61-3-5.26-2S1124.12,474.79,1125.42,476.93Zm4.56-2.77c.81,1.34.76,2.91-.11,3.44s-2.29-.15-3.11-1.49-.76-2.92.11-3.44S1129.16,472.82,1130,474.16Z"/><path class="cls-2" d="M1120.9,505.29a7.33,7.33,0,0,0,6-2.85,25.75,25.75,0,0,0,4.61-10.95,12.66,12.66,0,0,0,6.63-2,17.26,17.26,0,0,0,5.39-5.15,3.79,3.79,0,1,0,2.75-7.06c.08-.53.13-1.06.17-1.59a5.36,5.36,0,0,1,1.41,9.77,5.27,5.27,0,0,1-3.4.75.79.79,0,0,0-.87.69.76.76,0,0,0,.69.87,6.94,6.94,0,0,0,6.73-10.49,6.87,6.87,0,0,0-4.54-3.2,17.28,17.28,0,0,0-8.81-14.51,6.84,6.84,0,0,0-.74-5.5,6.94,6.94,0,0,0-12.86,4,17.35,17.35,0,0,0-3.92,1.76,12.65,12.65,0,0,0-4.85,4.94,25.74,25.74,0,0,0-11.85-1,7.33,7.33,0,0,0-5.31,4,8.53,8.53,0,0,0-5,1.23,8.39,8.39,0,0,0-3,11.48,8.2,8.2,0,0,0,3.9,3.32c.38,2.74,1.65,5.83,4,9.64s4.47,6.37,6.73,8a8.09,8.09,0,0,0,4.18,7.89.78.78,0,1,0,.76-1.37,6.58,6.58,0,0,1-2.45-2.35,6.9,6.9,0,1,1,9.38,2.16,7,7,0,0,1-4.26,1,.78.78,0,1,0-.14,1.56,8.44,8.44,0,0,0,5.22-1.22A8.56,8.56,0,0,0,1120.9,505.29Zm25.36-22.54a2.21,2.21,0,0,1-1.87.21,17.23,17.23,0,0,0,1.6-4.14,2.16,2.16,0,0,1,1,.88A2.21,2.21,0,0,1,1146.26,482.75Zm-18-29.69a5.39,5.39,0,0,1,7.38,1.81,5.3,5.3,0,0,1,.64,4,14.84,14.84,0,0,0-1.49-.58,3.7,3.7,0,0,0-.5-2.57,3.8,3.8,0,0,0-7,1.74c-.53.06-1.06.14-1.58.25A5.37,5.37,0,0,1,1128.23,453.06Zm.59,4.26a2.22,2.22,0,0,1,4.1-.82,2.15,2.15,0,0,1,.31,1.3A17.64,17.64,0,0,0,1128.82,457.32Zm13.83,9.15a15.77,15.77,0,0,1-5.3,21.65c-3.41,2.08-6.76,2.34-9.95.79-2.86-1.38-5.58-4.17-8.08-8.29s-3.71-7.81-3.63-11c.1-3.55,1.88-6.39,5.3-8.47A15.79,15.79,0,0,1,1142.65,466.47Zm-24.59,22.37a6.63,6.63,0,0,1-.79-2.83,4.24,4.24,0,0,0,2.29-.61,3.79,3.79,0,0,0,.74-.58,24.84,24.84,0,0,0,2.54,2.79C1122.44,487.94,1119.17,490.66,1118.06,488.84Zm-3.31-14.56a24,24,0,0,0,1.3,3.54,4.74,4.74,0,0,0-.86.39,4.24,4.24,0,0,0-1.59,1.75,6.65,6.65,0,0,1-2.15-2C1110.34,476.13,1114.27,474.48,1114.75,474.28Zm1.26,5.28a2.83,2.83,0,0,1,.74-.31q.55,1.08,1.23,2.19c.45.74.91,1.44,1.37,2.1a2.3,2.3,0,0,1-.61.51,2.63,2.63,0,1,1-2.73-4.49Zm-12.26-14.2a24,24,0,0,1,11,.87,12.21,12.21,0,0,0-.44,1.83,40,40,0,0,0-10.35,2.61,8.24,8.24,0,0,0-4.11-2.56A5.72,5.72,0,0,1,1103.75,465.36Zm-9.78,5.06a6.71,6.71,0,1,1-2.41,9.32A6.8,6.8,0,0,1,1094,470.42ZM1108.9,495a8.55,8.55,0,0,0-3.75,4.78,34,34,0,0,1-9.36-15.43,8.55,8.55,0,0,0,6-1.11,8.39,8.39,0,0,0,3.07-11.24,38.94,38.94,0,0,1,9.29-2.34,15,15,0,0,0,.27,3.08c-.58.21-6.51,2.36-4.28,6a8.5,8.5,0,0,0,3.07,2.78,4.18,4.18,0,0,0,2.5,4.11,8.51,8.51,0,0,0,1,4c2.26,3.73,6.87-.6,7.33-1a15.13,15.13,0,0,0,2.6,1.66,38.53,38.53,0,0,1-6.36,7.16A8.38,8.38,0,0,0,1108.9,495Zm12.14,3.89a40.7,40.7,0,0,0,7.1-8,11.64,11.64,0,0,0,1.83.45,24,24,0,0,1-4.29,10.11,5.73,5.73,0,0,1-4.27,2.24A8.17,8.17,0,0,0,1121,498.89Z"/><path class="cls-2" d="M1101.78,473.53a5.06,5.06,0,1,0-1.7,7A5.06,5.06,0,0,0,1101.78,473.53Zm-7.3,4.43a3.48,3.48,0,1,1,4.78,1.17A3.48,3.48,0,0,1,1094.48,478Z"/><path class="cls-2" d="M1117.52,499.46a5.06,5.06,0,1,0-1.7,6.94A5.06,5.06,0,0,0,1117.52,499.46Zm-7.3,4.43a3.48,3.48,0,1,1,4.78,1.17A3.49,3.49,0,0,1,1110.22,503.89Z"/><path class="cls-2" d="M316.52,197.76a.78.78,0,0,0,.63-.91l-.24-1.29a.78.78,0,0,0-.91-.63.79.79,0,0,0-.63.92l.23,1.28A.79.79,0,0,0,316.52,197.76Z"/><path class="cls-2" d="M297.35,201.28a.78.78,0,0,0,.63-.91l-.23-1.29a.79.79,0,1,0-1.55.29l.24,1.28A.78.78,0,0,0,297.35,201.28Z"/><path class="cls-2" d="M301,209.38a.78.78,0,0,0,1.1-.13.79.79,0,0,0-.13-1.11,4.71,4.71,0,0,1-1.8-2.86c-.58-3.13,2.36-6.3,6.54-7.07s8.06,1.15,8.64,4.28-2.36,6.3-6.55,7.07a9.5,9.5,0,0,1-4.45-.21.8.8,0,0,0-1,.53.79.79,0,0,0,.53,1,11,11,0,0,0,5.18.24c5-.92,8.55-4.92,7.81-8.9s-5.42-6.47-10.46-5.54-8.54,4.92-7.81,8.9A6.29,6.29,0,0,0,301,209.38Z"/><path class="cls-2" d="M308.17,206.21c2.46-.45,4.11-2.29,3.76-4.2s-2.55-3-5-2.59-4.12,2.3-3.77,4.2S305.7,206.67,308.17,206.21Zm-1-5.24c1.54-.28,3,.32,3.18,1.33s-1,2.08-2.5,2.37-3-.33-3.18-1.33S305.66,201.25,307.2,201Z"/><path class="cls-2" d="M333.07,220.53a7.32,7.32,0,0,0-.51-6.65,25.72,25.72,0,0,0-8.6-8.21,12.67,12.67,0,0,0,.47-6.91,17.22,17.22,0,0,0-2.9-6.87,3.79,3.79,0,0,0-3.37-6.4,3.69,3.69,0,0,0-2.25,1.33,14.78,14.78,0,0,0-1.43-.73,5.29,5.29,0,0,1,3.39-2.15,5.37,5.37,0,0,1,5.74,7.75.79.79,0,0,0,.33,1.06.76.76,0,0,0,1.06-.33,6.94,6.94,0,0,0-12-6.92,17.34,17.34,0,0,0-16.7,3.07,6.86,6.86,0,0,0-5.41-1.27,6.94,6.94,0,0,0-.81,13.45,16.76,16.76,0,0,0,.25,4.28,12.62,12.62,0,0,0,2.89,6.29,25.84,25.84,0,0,0-5.12,10.73,7.32,7.32,0,0,0,1.89,6.4,8.51,8.51,0,0,0,9,12,8.1,8.1,0,0,0,4.48-2.47c2.71.62,6,.53,10.44-.27s7.54-1.91,9.84-3.45a8.11,8.11,0,0,0,8.87-1.1.79.79,0,0,0-1-1.2,6.51,6.51,0,0,1-3.06,1.46,6.9,6.9,0,1,1,5.35-8,6.9,6.9,0,0,1-.58,4.34.78.78,0,0,0,.36,1,.8.8,0,0,0,1.06-.36,8.63,8.63,0,0,0-1.7-9.87Zm-12-31.71a2.2,2.2,0,0,1-.48,1.82,17.89,17.89,0,0,0-3.29-3,2.22,2.22,0,0,1,3.77,1.16Zm-34.17,6.27a5.37,5.37,0,0,1,4.31-6.24,5.3,5.3,0,0,1,3.94.8c-.38.38-.74.78-1.08,1.19a3.79,3.79,0,1,0-3.45,6.74c-.13.52-.24,1-.33,1.57A5.35,5.35,0,0,1,286.86,195.09Zm4.19,1a2.22,2.22,0,0,1,.69-4.12,2.24,2.24,0,0,1,1.33.17A17.13,17.13,0,0,0,291.05,196.06Zm13.47-9.67a15.79,15.79,0,0,1,18.36,12.66c.72,3.93-.22,7.15-2.8,9.58-2.32,2.18-5.89,3.72-10.63,4.59s-8.62.7-11.56-.51c-3.28-1.36-5.3-4-6-8A15.79,15.79,0,0,1,304.52,186.39Zm12.17,30.94a7,7,0,0,1-2.94-.27,4.17,4.17,0,0,0,.25-2.36,4.67,4.67,0,0,0-.27-.9,23.85,23.85,0,0,0,3.5-1.37C317.4,212.92,318.78,216.94,316.69,217.33Zm-14.79-2.09a23.4,23.4,0,0,0,3.76,0,4.21,4.21,0,0,0,.07.94,4.13,4.13,0,0,0,1.07,2.12,6.76,6.76,0,0,1-2.65,1.29C302.06,220,301.92,215.76,301.9,215.24Zm5.38.7a2.69,2.69,0,0,1,0-.8c.81-.09,1.64-.21,2.49-.37s1.67-.34,2.45-.53a2.23,2.23,0,0,1,.26.75,2.63,2.63,0,1,1-5.17.95Zm-17.64,6.4a24,24,0,0,1,4.71-9.92,12.16,12.16,0,0,0,1.55,1.07,40.46,40.46,0,0,0-1.23,10.6,8.18,8.18,0,0,0-3.86,2.93A5.76,5.76,0,0,1,289.64,222.34Zm1.25,10.94a6.72,6.72,0,1,1,7.85,5.57A6.83,6.83,0,0,1,290.89,233.28Zm28.29-5.2a8.52,8.52,0,0,0,3.13,5.2,33.94,33.94,0,0,1-17.74,3.26,8.61,8.61,0,0,0,1.08-6,8.4,8.4,0,0,0-9.42-6.88,39.18,39.18,0,0,1,1.12-9.51,14.42,14.42,0,0,0,3,.85c0,.62-.1,6.92,4.12,6.15a8.59,8.59,0,0,0,3.68-1.89,4.27,4.27,0,0,0,2.51.31,4.21,4.21,0,0,0,2.23-1.18,8.4,8.4,0,0,0,4.11.45c4.3-.79,1.89-6.63,1.66-7.2a15.39,15.39,0,0,0,2.48-1.85,38.65,38.65,0,0,1,4.42,8.49A8.39,8.39,0,0,0,319.18,228.08Zm8-10a40.39,40.39,0,0,0-4.93-9.47,10,10,0,0,0,1.07-1.55,24.12,24.12,0,0,1,7.94,7.61,5.75,5.75,0,0,1,.57,4.78A8.16,8.16,0,0,0,327.14,218.12Z"/><path class="cls-2" d="M296.58,227.09a5.06,5.06,0,1,0,5.89,4.06A5.07,5.07,0,0,0,296.58,227.09Zm1.55,8.4a3.48,3.48,0,1,1,2.79-4.05A3.49,3.49,0,0,1,298.13,235.49Z"/><path class="cls-2" d="M326.42,221.61a5.06,5.06,0,1,0,5.88,4.06A5.06,5.06,0,0,0,326.42,221.61ZM328,230a3.48,3.48,0,1,1,2.8-4.06A3.48,3.48,0,0,1,328,230Z"/><path class="cls-2" d="M635.73,263.67a.67.67,0,0,0,.83-.44l.32-1a.66.66,0,0,0-.43-.83.65.65,0,0,0-.82.44l-.33,1A.66.66,0,0,0,635.73,263.67Z"/><path class="cls-2" d="M620.14,258.79a.66.66,0,0,0,.83-.43l.33-1.05a.66.66,0,0,0-1.26-.39l-.33,1A.67.67,0,0,0,620.14,258.79Z"/><path class="cls-2" d="M619.67,266.21a.66.66,0,1,0,1.2-.53,4,4,0,0,1-.22-2.84c.8-2.54,4.22-3.75,7.62-2.68s5.53,4,4.73,6.54-4.21,3.75-7.62,2.69a8,8,0,0,1-3.21-1.89.67.67,0,0,0-.94,0,.66.66,0,0,0,0,.93,9.37,9.37,0,0,0,3.75,2.21c4.1,1.28,8.26-.31,9.27-3.55s-1.5-6.92-5.59-8.2-8.26.31-9.27,3.55A5.24,5.24,0,0,0,619.67,266.21Z"/><path class="cls-2" d="M626.23,266.67c2,.63,3.95-.1,4.44-1.64s-.71-3.26-2.71-3.88-4,.09-4.43,1.64S624.23,266.05,626.23,266.67Zm1.34-4.26c1.25.39,2.09,1.41,1.84,2.22s-1.53,1.17-2.78.78-2.1-1.41-1.84-2.22S626.32,262,627.57,262.41Z"/><path class="cls-2" d="M639.11,287a6.14,6.14,0,0,0,2.21-5.14,21.47,21.47,0,0,0-3.16-9.44,10.57,10.57,0,0,0,3-4.94,14.46,14.46,0,0,0,.54-6.23,3.18,3.18,0,1,0-2.18-6c-.24-.37-.5-.74-.78-1.09a4.45,4.45,0,0,1,3.36-.27,4.5,4.5,0,0,1,3,5.63,4.4,4.4,0,0,1-1.73,2.35.66.66,0,0,0-.16.92.62.62,0,0,0,.91.17,5.81,5.81,0,0,0-1.58-10.33,5.78,5.78,0,0,0-4.62.5A14.51,14.51,0,0,0,624.33,249a5.76,5.76,0,0,0-3.52-3,5.81,5.81,0,0,0-5.86,9.65,14.5,14.5,0,0,0-1.49,3.27,10.67,10.67,0,0,0-.31,5.8,21.5,21.5,0,0,0-8,5.95,6.16,6.16,0,0,0-1.1,5.48,7.15,7.15,0,0,0-2.47,3.55,7,7,0,0,0,4.51,8.85,6.83,6.83,0,0,0,4.29-.08,28.28,28.28,0,0,0,16.49,5.16,6.78,6.78,0,0,0,7,2.65.66.66,0,1,0-.29-1.28,5.48,5.48,0,0,1-2.84-.12,5.79,5.79,0,1,1,7.1-3.84,5.86,5.86,0,0,1-2.13,3,.65.65,0,0,0-.14.92.65.65,0,0,0,.92.14,7.24,7.24,0,0,0,2.6-8Zm3.46-28.23a1.87,1.87,0,0,1-1.06,1.17,14.75,14.75,0,0,0-1.28-3.49,1.85,1.85,0,0,1,2.34,2.32Zm-27.79-8.69a4.5,4.5,0,0,1,8.24-.81c-.42.13-.85.29-1.26.46a3.13,3.13,0,0,0-1.73-1.34,3.19,3.19,0,0,0-4,2.09,3.14,3.14,0,0,0,.53,2.9c-.3.33-.59.67-.86,1A4.47,4.47,0,0,1,614.78,250.1Zm2.73,2.35a1.86,1.86,0,0,1,2.12-2.78,1.79,1.79,0,0,1,.92.65A14.47,14.47,0,0,0,617.51,252.45Zm13.77-1.9A13.24,13.24,0,0,1,640,267.1a8.33,8.33,0,0,1-5.83,6c-2.57.71-5.82.46-9.67-.75s-6.67-2.85-8.37-4.9a8.3,8.3,0,0,1-1.36-8.25A13.23,13.23,0,0,1,631.28,250.55Zm-3.07,27.69a5.71,5.71,0,0,1-2.07-1.35,3.49,3.49,0,0,0,1.1-1.64,3.58,3.58,0,0,0,.15-.78,20,20,0,0,0,3.14.35C630.46,275.25,629.92,278.77,628.21,278.24Zm-10.15-7.32a20.58,20.58,0,0,0,2.77,1.5,3.82,3.82,0,0,0-.31.72,3.55,3.55,0,0,0,0,2,5.56,5.56,0,0,1-2.46-.08C616.31,274.52,617.87,271.31,618.06,270.92Zm3.72,2.62a1.86,1.86,0,0,1,.29-.6c.63.24,1.29.47,2,.69s1.37.4,2,.56a2.12,2.12,0,0,1-.11.66,2.2,2.2,0,1,1-4.2-1.31Zm-15.59-2.14a20.07,20.07,0,0,1,7.38-5.52,8.79,8.79,0,0,0,.73,1.39,33.89,33.89,0,0,0-5.06,7.38,6.91,6.91,0,0,0-4,.67A4.86,4.86,0,0,1,606.19,271.4ZM602.85,280a5.63,5.63,0,1,1,3.64,7.2A5.71,5.71,0,0,1,602.85,280Zm23,7.2a7.14,7.14,0,0,0,.29,5.08,28.44,28.44,0,0,1-14.44-4.52,7.15,7.15,0,0,0,3.14-4,7,7,0,0,0-4.29-8.78,32.83,32.83,0,0,1,4.54-6.61,12.79,12.79,0,0,0,1.87,1.79c-.24.45-2.78,5.08.65,6.16a7.11,7.11,0,0,0,3.47,0,3.57,3.57,0,0,0,1.74,1.21,3.53,3.53,0,0,0,2.11,0,7.14,7.14,0,0,0,2.88,1.95c3.49,1.09,4-4.18,4-4.7a12.13,12.13,0,0,0,2.56-.4,32.57,32.57,0,0,1,0,8A7,7,0,0,0,625.86,287.19Zm9.79-4.28a33.89,33.89,0,0,0,.05-9,8.85,8.85,0,0,0,1.4-.73A20.23,20.23,0,0,1,640,282a4.83,4.83,0,0,1-1.45,3.77A6.85,6.85,0,0,0,635.65,282.91Z"/><path class="cls-2" d="M609.49,277.63a4.24,4.24,0,1,0,2.78,5.31A4.24,4.24,0,0,0,609.49,277.63Zm-2.14,6.83a2.92,2.92,0,1,1,3.66-1.92A2.91,2.91,0,0,1,607.35,284.46Z"/><path class="cls-2" d="M633.75,285.22a4.23,4.23,0,1,0,2.78,5.31A4.24,4.24,0,0,0,633.75,285.22Zm-2.14,6.83a2.92,2.92,0,1,1,3.66-1.92A2.93,2.93,0,0,1,631.61,292.05Z"/><path class="cls-2" d="M1238,477.59l2.79-19.44a3.67,3.67,0,0,0-3.11-4.15l-31.92-4.59a3.67,3.67,0,0,0-4.15,3.1L1198.8,472a3.64,3.64,0,0,0,.81,2.86,3.68,3.68,0,0,0-1.59,2.52l-4.73,32.88a3.68,3.68,0,0,0,3.11,4.15l.49.07-.41,2.89a1,1,0,0,0,.8,1.08l6.73,1a1,1,0,0,0,1.08-.81l.41-2.89,13.72,2-.41,2.88a.94.94,0,0,0,.8,1.08l6.73,1a1,1,0,0,0,1.07-.81l.42-2.89.49.08a3.68,3.68,0,0,0,4.16-3.11l4.73-32.88a3.68,3.68,0,0,0-.81-2.87,3.66,3.66,0,0,0,1.59-2.51Zm-34.65,39.76-4.84-.7.28-1.95,4.84.7Zm22.33,3.21-4.85-.7.28-1.94,4.85.69Zm9.66-37.86-4.74,32.88a1.76,1.76,0,0,1-2,1.49l-31.92-4.59a1.78,1.78,0,0,1-1.5-2l4.74-32.88a1.77,1.77,0,0,1,2-1.5l31.92,4.6a1.76,1.76,0,0,1,1.5,2Zm-33.15-8.48a1.76,1.76,0,0,1-1.5-2l2.8-19.44a1.76,1.76,0,0,1,2-1.49l31.92,4.59a1.77,1.77,0,0,1,1.5,2l-2.8,19.44a1.76,1.76,0,0,1-2,1.49Z"/><path class="cls-2" d="M1234,460.37l-3.5-.5a1,1,0,0,0-1.08.8l-1.62,11.3a.93.93,0,0,0,.8,1.07l3.5.51a1,1,0,0,0,1.08-.81l1.62-11.29a.94.94,0,0,0-.8-1.08Zm-2.57,11.16-1.62-.23,1.36-9.42,1.61.24Z"/><path class="cls-2" d="M1225.24,496.48l3.49.51a1,1,0,0,0,1.08-.81l1.63-11.29a1,1,0,0,0-.81-1.08h0l-3.5-.5a.93.93,0,0,0-1.07.8h0l-1.63,11.3A1,1,0,0,0,1225.24,496.48Zm2.57-11.16,1.61.24-1.36,9.41-1.61-.23Z"/><path class="cls-2" d="M1108.56,156.11l-9.73-12.68a3,3,0,0,0-4.19-.55l-20.82,16a3,3,0,0,0-.55,4.19l9.73,12.68a3,3,0,0,0,2.13,1.15,3,3,0,0,0,.57,2.35l16.47,21.45a3,3,0,0,0,4.18.55l.33-.25,1.44,1.89a.78.78,0,0,0,1.09.14l4.38-3.37a.77.77,0,0,0,.15-1.08l-1.45-1.89,9-6.86,1.45,1.88a.77.77,0,0,0,1.08.14l4.39-3.36a.78.78,0,0,0,.14-1.09l-1.45-1.88.33-.25a3,3,0,0,0,.55-4.19l-16.47-21.44a3,3,0,0,0-2.13-1.16,3,3,0,0,0-.57-2.35Zm3.48,42.78-3.16,2.42-1-1.27,3.16-2.42Zm14.56-11.18-3.16,2.42-1-1.27,3.16-2.42ZM1110,160.56,1126.5,182a1.43,1.43,0,0,1-.27,2l-20.82,16a1.44,1.44,0,0,1-2-.26l-16.46-21.45a1.42,1.42,0,0,1,.26-2l20.82-16a1.45,1.45,0,0,1,2,.27Zm-23.78,14.49a1.45,1.45,0,0,1-2-.27l-9.73-12.67a1.44,1.44,0,0,1,.26-2l20.82-16a1.45,1.45,0,0,1,2,.26l9.73,12.68a1.44,1.44,0,0,1-.26,2Z"/><path class="cls-2" d="M1096.27,148.64l-2.28,1.75a.77.77,0,0,0-.15,1.08l5.66,7.37a.78.78,0,0,0,1.09.14l2.28-1.75a.77.77,0,0,0,.14-1.08l-5.66-7.37a.77.77,0,0,0-1.08-.14Zm5,7.84-1,.81-4.72-6.14,1.06-.81Z"/><path class="cls-2" d="M1112.33,174.27l2.28-1.75a.77.77,0,0,0,.14-1.08l-5.66-7.37a.77.77,0,0,0-1.08-.14h0l-2.28,1.75a.77.77,0,0,0-.15,1.08h0l5.66,7.37A.78.78,0,0,0,1112.33,174.27Zm-5-7.84,1.06-.8,4.71,6.14-1,.8Z"/><path class="cls-2" d="M1236.92,333.91l-1.49-.36,1.07-4.48a7.68,7.68,0,0,0-2.84-7.91l5.52-23a1.53,1.53,0,0,0-.57-1.58,6.06,6.06,0,0,0,1.64-2.9,6.14,6.14,0,0,0-12-2.86,6.06,6.06,0,0,0,.11,3.19L1176,281.41a6.06,6.06,0,0,0,1.54-2.79,6.14,6.14,0,0,0-12-2.87,6.08,6.08,0,0,0,.15,3.33,1.53,1.53,0,0,0-1.22,1.16l-5.52,23a7.68,7.68,0,0,0-6.12,5.76l-1.08,4.48-1.49-.35a1.54,1.54,0,0,0-1.85,1.13l-5,20.91a1.53,1.53,0,0,0,1.13,1.85l1.5.36-1.79,7.47a1.53,1.53,0,0,0,1.14,1.85l6,1.43a1.53,1.53,0,0,0,1.85-1.13l1.79-7.47,65.74,15.74-1.79,7.47a1.53,1.53,0,0,0,1.14,1.85l6,1.43a1.53,1.53,0,0,0,1.85-1.13l1.79-7.47,1.5.36a1.54,1.54,0,0,0,1.85-1.14l5-20.91A1.53,1.53,0,0,0,1236.92,333.91ZM1235,289.23a3.07,3.07,0,1,1-3.7,2.27A3.06,3.06,0,0,1,1235,289.23Zm-62.75-15a3.07,3.07,0,1,1-3.7,2.27A3.08,3.08,0,0,1,1172.24,274.2Zm-5.13,8.24,68.72,16.46-5,20.91-6-1.44a7.6,7.6,0,0,0,2.6-4.11l.72-3a7.7,7.7,0,0,0-5.68-9.26l-12-2.86a7.69,7.69,0,0,0-9.26,5.68l-.72,3a7.64,7.64,0,0,0,.46,4.85l-9-2.17a7.62,7.62,0,0,0,2.61-4.11l.71-3a7.7,7.7,0,0,0-5.68-9.26l-11.95-2.86a7.69,7.69,0,0,0-9.26,5.68l-.72,3a7.64,7.64,0,0,0,.46,4.85l-6-1.45Zm58,28.12-.71,3a4.61,4.61,0,0,1-5.56,3.41l-11.95-2.86a4.61,4.61,0,0,1-3.41-5.56l.72-3a4.6,4.6,0,0,1,5.55-3.41l12,2.86A4.61,4.61,0,0,1,1225.14,310.56Zm-32.87-7.88-.71,3a4.61,4.61,0,0,1-5.56,3.41l-12-2.86a4.61,4.61,0,0,1-3.41-5.56l.72-3a4.6,4.6,0,0,1,5.55-3.41l12,2.86A4.6,4.6,0,0,1,1192.27,302.68Zm-36.44,7.07a4.6,4.6,0,0,1,5.55-3.41l68.73,16.46a4.6,4.6,0,0,1,3.4,5.55l-1.07,4.49-77.69-18.61Zm-5.25,35.07-3-.72,1.43-6,3,.71Zm74.7,17.89-3-.72,1.44-6,3,.71Zm5.14-8.25-83.67-20,4.3-17.93,83.66,20Z"/><path class="cls-2" d="M1158.64,331l-6-1.44a1.54,1.54,0,0,0-.72,3l6,1.43a1.53,1.53,0,1,0,.71-3Z"/><path class="cls-2" d="M1227.37,347.41l-62.75-15a1.53,1.53,0,0,0-.72,3l62.75,15a1.54,1.54,0,0,0,.72-3Z"/><path class="cls-2" d="M560.92,480.87l-1.49-.36L560.5,476a7.68,7.68,0,0,0-2.84-7.91l5.52-23a1.54,1.54,0,0,0-.57-1.59,6,6,0,0,0,1.64-2.89,6.14,6.14,0,0,0-12-2.87,6.06,6.06,0,0,0,.11,3.19L500,428.37a6.06,6.06,0,0,0,1.54-2.79,6.14,6.14,0,1,0-11.95-2.86,6,6,0,0,0,.15,3.32,1.53,1.53,0,0,0-1.22,1.16l-5.52,23a7.68,7.68,0,0,0-6.12,5.77l-1.08,4.48-1.49-.36a1.54,1.54,0,0,0-1.85,1.13l-5,20.91a1.54,1.54,0,0,0,1.13,1.86l1.5.35-1.79,7.47a1.53,1.53,0,0,0,1.14,1.85l6,1.43a1.53,1.53,0,0,0,1.85-1.13l1.79-7.47,65.74,15.74L543,509.73a1.53,1.53,0,0,0,1.14,1.85l6,1.43a1.53,1.53,0,0,0,1.85-1.13l1.79-7.47,1.5.36a1.53,1.53,0,0,0,1.85-1.14l5-20.91A1.53,1.53,0,0,0,560.92,480.87ZM559,436.19a3.07,3.07,0,1,1-3.7,2.27A3.06,3.06,0,0,1,559,436.19Zm-62.75-15a3.07,3.07,0,1,1-3.7,2.27A3.08,3.08,0,0,1,496.24,421.16Zm-5.13,8.25,68.72,16.45-5,20.91-6-1.44a7.56,7.56,0,0,0,2.6-4.11l.72-3a7.69,7.69,0,0,0-5.68-9.25l-12-2.87a7.69,7.69,0,0,0-9.26,5.68l-.72,3a7.63,7.63,0,0,0,.46,4.85l-9-2.17a7.62,7.62,0,0,0,2.61-4.11l.71-3a7.7,7.7,0,0,0-5.68-9.26l-12-2.86a7.69,7.69,0,0,0-9.26,5.68l-.72,3a7.64,7.64,0,0,0,.46,4.85l-6-1.44Zm58,28.11-.71,3a4.61,4.61,0,0,1-5.56,3.41l-12-2.86a4.6,4.6,0,0,1-3.41-5.55l.72-3a4.6,4.6,0,0,1,5.55-3.41l12,2.86A4.61,4.61,0,0,1,549.14,457.52Zm-32.87-7.87-.71,3A4.61,4.61,0,0,1,510,456l-11.95-2.86a4.61,4.61,0,0,1-3.41-5.56l.72-3a4.6,4.6,0,0,1,5.55-3.41l12,2.86A4.6,4.6,0,0,1,516.27,449.65Zm-36.44,7.06a4.61,4.61,0,0,1,5.55-3.41l68.73,16.46a4.6,4.6,0,0,1,3.4,5.56l-1.07,4.48-77.69-18.61Zm-5.25,35.07-3-.72,1.43-6,3,.71Zm74.7,17.89-3-.72,1.44-6,3,.71Zm5.14-8.25-83.67-20,4.3-17.93,83.66,20Z"/><path class="cls-2" d="M482.64,477.92l-6-1.43a1.53,1.53,0,0,0-.72,3l6,1.43a1.53,1.53,0,1,0,.71-3Z"/><path class="cls-2" d="M551.37,494.38l-62.75-15a1.53,1.53,0,0,0-.72,3l62.75,15a1.53,1.53,0,1,0,.72-3Z"/><path class="cls-2" d="M922.72,87.54l-.91.55-1.67-2.72a5.33,5.33,0,0,0-5.27-2.48l-8.59-14a1,1,0,0,0-1-.49A4.27,4.27,0,1,0,899,72.13L867.1,91.68a4.21,4.21,0,0,0-.61-2.13A4.26,4.26,0,0,0,859.23,94a4.15,4.15,0,0,0,1.71,1.56,1.06,1.06,0,0,0,0,1.17l8.59,14a5.32,5.32,0,0,0-.18,5.82l1.68,2.73-.91.55a1.07,1.07,0,0,0-.35,1.47l7.79,12.7a1.07,1.07,0,0,0,1.47.35l.9-.56,2.79,4.54a1.06,1.06,0,0,0,1.46.35l3.63-2.23a1.06,1.06,0,0,0,.35-1.46l-2.78-4.54L925.27,106l2.79,4.54a1.06,1.06,0,0,0,1.46.35l3.63-2.23a1.06,1.06,0,0,0,.35-1.46l-2.78-4.54.91-.56a1.07,1.07,0,0,0,.35-1.46l-7.8-12.7A1.06,1.06,0,0,0,922.72,87.54Zm-22.85-21a2.13,2.13,0,1,1-.71,2.93A2.13,2.13,0,0,1,899.87,66.58ZM861.75,90a2.13,2.13,0,1,1-.7,2.93A2.14,2.14,0,0,1,861.75,90Zm1.52,6.56L905,70.92l7.8,12.7-3.66,2.24a5.2,5.2,0,0,0-.74-3.29l-1.11-1.82A5.32,5.32,0,0,0,900,79l-7.26,4.45A5.34,5.34,0,0,0,891,90.77l1.12,1.82a5.33,5.33,0,0,0,2.6,2.15l-5.49,3.37a5.31,5.31,0,0,0-.74-3.3L887.34,93A5.33,5.33,0,0,0,880,91.24l-7.26,4.46A5.32,5.32,0,0,0,871,103l1.11,1.81a5.27,5.27,0,0,0,2.6,2.15l-3.65,2.24ZM905.5,81.86l1.11,1.82a3.2,3.2,0,0,1-1.05,4.39l-7.26,4.45a3.19,3.19,0,0,1-4.4-1l-1.11-1.81a3.19,3.19,0,0,1,1.05-4.39l7.26-4.46A3.21,3.21,0,0,1,905.5,81.86Zm-20,12.25,1.11,1.82a3.2,3.2,0,0,1-1,4.39l-7.26,4.45a3.2,3.2,0,0,1-4.39-1l-1.12-1.82a3.2,3.2,0,0,1,1-4.39l7.27-4.45A3.2,3.2,0,0,1,885.53,94.11Zm-14.4,21.32a3.2,3.2,0,0,1,1-4.39l41.75-25.61a3.2,3.2,0,0,1,4.39,1L920,89.21,872.8,118.15Zm14.62,19.76-1.81,1.11-2.23-3.63,1.81-1.11Zm45.38-27.84-1.82,1.12-2.22-3.63,1.81-1.12Zm-1.53-6.55L878.78,132l-6.68-10.89,50.82-31.17Z"/><path class="cls-2" d="M882.91,124.44l-3.63,2.23a1.06,1.06,0,1,0,1.11,1.81l3.63-2.22a1.07,1.07,0,0,0,.35-1.47A1.06,1.06,0,0,0,882.91,124.44Z"/><path class="cls-2" d="M924.65,98.84l-38.11,23.38a1.06,1.06,0,0,0,1.11,1.81l38.12-23.38a1.06,1.06,0,1,0-1.12-1.81Z"/><path class="cls-2" d="M377.42,284.8l-49.31,12.71a6.36,6.36,0,0,0-4.57,7.75l15.25,59.16a3.82,3.82,0,0,0,4.65,2.74l1,3.7a1.26,1.26,0,0,0,1.55.91l51.77-13.34a1.27,1.27,0,0,0,.91-1.55l-.95-3.7a3.83,3.83,0,0,0,2.75-4.65l-15.26-59.15A6.38,6.38,0,0,0,377.42,284.8ZM328.75,300l49.3-12.71a3.82,3.82,0,0,1,4.66,2.74l2.22,8.63-56.7,14.61L326,304.63A3.81,3.81,0,0,1,328.75,300Zm67.1,56.3L346.54,369l-.63-2.47,49.3-12.7Zm1.19-5.56-54.23,14a1.28,1.28,0,0,1-1.55-.92l-12.4-48.06,56.71-14.62L398,349.17A1.27,1.27,0,0,1,397,350.72Z"/><path class="cls-2" d="M331.29,309.84,346.08,306a1.28,1.28,0,0,0,.92-1.55l-1.28-4.93a1.26,1.26,0,0,0-1.55-.91l-14.79,3.81a1.27,1.27,0,0,0-.91,1.55l1.27,4.93A1.28,1.28,0,0,0,331.29,309.84Zm0-5.25,12.33-3.18.63,2.47-12.32,3.17Z"/><path class="cls-2" d="M353.48,304.12a3.82,3.82,0,1,0-4.65-2.75A3.82,3.82,0,0,0,353.48,304.12Zm-1.27-4.93a1.27,1.27,0,1,1-.92,1.55A1.27,1.27,0,0,1,352.21,299.19Z"/><path class="cls-2" d="M363.34,301.57a3.82,3.82,0,1,0-4.65-2.74A3.81,3.81,0,0,0,363.34,301.57Zm-1.27-4.92a1.27,1.27,0,0,1,1.55.91,1.28,1.28,0,0,1-.92,1.55,1.27,1.27,0,1,1-.63-2.46Z"/><path class="cls-2" d="M370.1,297.2l2.46-.63a1.27,1.27,0,1,0-.63-2.47l-2.47.64a1.27,1.27,0,1,0,.64,2.46Z"/><path class="cls-2" d="M377.5,295.3l2.46-.64a1.27,1.27,0,1,0-.64-2.46l-2.46.63a1.28,1.28,0,1,0,.64,2.47Z"/><path class="cls-2" d="M358.48,313.34A20.37,20.37,0,1,0,383.29,328,20.36,20.36,0,0,0,358.48,313.34Zm9.54,37a17.81,17.81,0,1,1,12.81-21.7A17.83,17.83,0,0,1,368,350.31Z"/><path class="cls-2" d="M359.44,317a16.52,16.52,0,0,0-11.9,20.12,16.34,16.34,0,0,0,2.78,5.79l0,.08s.05,0,.07.06a16.54,16.54,0,0,0,29.69-9.87v-.07a16.48,16.48,0,0,0-16.31-16.65A16.78,16.78,0,0,0,359.44,317Zm.63,2.46a14,14,0,0,1,17,10,14.59,14.59,0,0,1,.45,3.08,18.85,18.85,0,0,0-1.7,1.23A11.58,11.58,0,0,1,371,336.4a8.58,8.58,0,0,1-4.66,0,11.09,11.09,0,0,0-5.83.06,33.28,33.28,0,0,0-8.75,4.09,14,14,0,0,1,8.31-21.07Zm7,27.11a14,14,0,0,1-13.75-4,30.33,30.33,0,0,1,7.82-3.66,8.61,8.61,0,0,1,4.67,0,11.09,11.09,0,0,0,5.83-.06,13.71,13.71,0,0,0,5.61-2.91A14,14,0,0,1,367.07,346.61Z"/><path class="cls-2" d="M792.68,144.42l-45.62-22.6a6.37,6.37,0,0,0-8.53,2.87L711.4,179.43a3.82,3.82,0,0,0,1.72,5.12L711.43,188a1.26,1.26,0,0,0,.57,1.7l47.91,23.74a1.27,1.27,0,0,0,1.7-.58l1.7-3.42a3.83,3.83,0,0,0,5.12-1.72L795.56,153A6.38,6.38,0,0,0,792.68,144.42ZM745.93,124.1l45.62,22.6a3.83,3.83,0,0,1,1.73,5.12l-4,8-52.47-26,4-8A3.82,3.82,0,0,1,745.93,124.1Zm14,86.46L714.27,188l1.13-2.28L761,208.28Zm4.54-3.43-50.19-24.86a1.27,1.27,0,0,1-.57-1.71l22-44.47,52.47,26-22,44.47A1.28,1.28,0,0,1,764.44,207.13Z"/><path class="cls-2" d="M741.4,133.22,755.09,140a1.28,1.28,0,0,0,1.71-.57l2.26-4.56a1.28,1.28,0,0,0-.58-1.71l-13.69-6.78a1.27,1.27,0,0,0-1.7.58l-2.26,4.56A1.27,1.27,0,0,0,741.4,133.22Zm3.4-4,11.41,5.65-1.13,2.28-11.41-5.65Z"/><path class="cls-2" d="M761.93,143.39a3.82,3.82,0,1,0-1.72-5.11A3.81,3.81,0,0,0,761.93,143.39Zm2.27-4.56a1.27,1.27,0,1,1-1.71.58A1.28,1.28,0,0,1,764.2,138.83Z"/><path class="cls-2" d="M771.06,147.91a3.82,3.82,0,1,0-1.73-5.11A3.82,3.82,0,0,0,771.06,147.91Zm2.26-4.56a1.27,1.27,0,1,1-1.71.58A1.28,1.28,0,0,1,773.32,143.35Z"/><path class="cls-2" d="M779,149l2.29,1.13a1.26,1.26,0,0,0,1.7-.57,1.28,1.28,0,0,0-.57-1.71l-2.29-1.13A1.27,1.27,0,0,0,779,149Z"/><path class="cls-2" d="M785.88,152.41l2.28,1.13a1.27,1.27,0,1,0,1.13-2.28L787,150.13a1.27,1.27,0,1,0-1.13,2.28Z"/><path class="cls-2" d="M759.69,153.65a20.36,20.36,0,1,0,9.21,27.28A20.36,20.36,0,0,0,759.69,153.65Zm-17,34.21a17.82,17.82,0,1,1,23.88-8.06A17.82,17.82,0,0,1,742.74,187.86Z"/><path class="cls-2" d="M758,157.07a16.53,16.53,0,0,0-22.16,7.45,16.32,16.32,0,0,0-1.69,6.2s0,0,0,.07,0,.06,0,.09a16.54,16.54,0,0,0,28.93,11.93l0-.05a16.48,16.48,0,0,0-1.46-23.26A16.17,16.17,0,0,0,758,157.07Zm-1.13,2.28a14,14,0,0,1,6.36,18.7,14.41,14.41,0,0,1-1.68,2.62,18.22,18.22,0,0,0-2.09-.18,11.63,11.63,0,0,1-5.37-1.21,8.62,8.62,0,0,1-3.54-3,11.12,11.12,0,0,0-4.45-3.76,33.49,33.49,0,0,0-9.3-2.62,14,14,0,0,1,20.07-10.51Zm-12.44,25.09a14,14,0,0,1-7.77-12,30.45,30.45,0,0,1,8.31,2.34,8.52,8.52,0,0,1,3.54,3,11.14,11.14,0,0,0,4.45,3.77,13.72,13.72,0,0,0,6.16,1.46A14,14,0,0,1,744.43,184.44Z"/><g id="Out_line-2" data-name="Out line"><path class="cls-2" d="M1518.93,181.93l31.35-34a8.33,8.33,0,0,0-.47-11.78,8.63,8.63,0,0,0-.81-.66l-18.58-13.28a8.37,8.37,0,0,0-9.5-.14L1495.79,139a9.72,9.72,0,0,1-11-.16l-8.53-6.1a5,5,0,0,0-7,1.16l-5.82,8.14a1.65,1.65,0,0,0,.38,2.32h0l3.85,2.75-27.22,27.87a4.22,4.22,0,0,0,5.81,6.11l30.85-27.22,5.14,3.67L1455,185.37a4.22,4.22,0,0,0,5.81,6.11l30.85-27.23,5.31,3.8-15.8,38a4.22,4.22,0,0,0,7.67,3.52l17.58-34.76,1.41,1-15.8,38a4.22,4.22,0,0,0,7.66,3.52l17.65-34.89A1.66,1.66,0,0,0,1518.93,181.93Zm-39.21-42.64,3.11,2.22a13,13,0,0,0,14.81.22l25.14-16.86a5,5,0,0,1,5.7.08l18.58,13.29a5,5,0,0,1,1.16,7,4.54,4.54,0,0,1-.39.48h0l-15.45,16.73a9.67,9.67,0,0,1-10.67,2.43,13,13,0,0,0,7.7-4l11.45-12.41-2.45-2.26L1527,158.55a9.68,9.68,0,0,1-12.73,1.31,5,5,0,0,0-7,1.16l-1.14,1.59a5,5,0,0,0-1.19-1.2L1477.78,142a4.77,4.77,0,0,0-1.52-.74l1.14-1.59A1.67,1.67,0,0,1,1479.72,139.29Zm30.81,34.33,4.86-6.78a1.66,1.66,0,0,1,2.32-.39,13,13,0,0,0,8.79,2.37l-9,9.77Zm3.35-9.91a5.07,5.07,0,0,0-1.21,1.19l-4.85,6.78-2.71-1.94L1510,163a1.68,1.68,0,0,1,2.33-.39Zm-11.49,4.09-29.84-21.34,1-1.36a1.66,1.66,0,0,1,2.32-.38l27.14,19.4a1.67,1.67,0,0,1,.38,2.33Zm-30.42-32a1.68,1.68,0,0,1,2.33-.39l1.59,1.14a4.89,4.89,0,0,0-1.21,1.19l-4.85,6.78-2.71-1.94Zm-27.92,42.75a.88.88,0,0,1-1.21-1.28L1470.41,149l3.92,2.79ZM1458.63,189a.88.88,0,0,1-1.24-.08.87.87,0,0,1,0-1.2L1485,159.46l3.92,2.8Zm27.26,19.07a.88.88,0,0,1-1.61-.73L1499.79,170l3.91,2.8Zm10.28,8.22a.87.87,0,0,1-1.07-.64.86.86,0,0,1,0-.55l15.5-37.28,3.92,2.8-17.82,35.22a.84.84,0,0,1-.57.45Z"/></g><path class="cls-2" d="M1639.24,44a3.62,3.62,0,1,0,4.25,2.84A3.62,3.62,0,0,0,1639.24,44Zm.94,4.73a1.2,1.2,0,1,1,1-1.42A1.2,1.2,0,0,1,1640.18,48.73Z"/><path class="cls-2" d="M1684.13,35a3.61,3.61,0,1,0,4.25,2.84A3.63,3.63,0,0,0,1684.13,35Zm.94,4.73a1.2,1.2,0,1,1,1-1.42A1.22,1.22,0,0,1,1685.07,39.76Z"/><path class="cls-2" d="M1693.1,36.92a8.43,8.43,0,0,0-9.92-6.61l-.14,0a8.53,8.53,0,0,0-6.45,10l.79,4A60.27,60.27,0,0,0,1649,50l-.81-4.09a8.44,8.44,0,0,0-9.92-6.61l-.32.07A8.43,8.43,0,0,0,1640.4,56l1,4.8a4.82,4.82,0,0,0,5.67,3.78l.71,3.54a1.21,1.21,0,0,0,1.42,1l3.54-.71a1.2,1.2,0,0,0,.93-.86l1.22-4.48L1677,58.56l2.85,3.66a1.21,1.21,0,0,0,1.19.45l3.54-.71a1.21,1.21,0,0,0,1-1.42l-.71-3.54a4.82,4.82,0,0,0,3.78-5.67l-1-4.81A8.43,8.43,0,0,0,1693.1,36.92Zm-41.6,29.2-1.63.32-.47-2.36,2.81-.56Zm31.44-6.29-1.63.33L1679.66,58l2.81-.56ZM1686,44.48a1.21,1.21,0,0,0-.94,1.42l1.18,5.9a2.42,2.42,0,0,1-1.89,2.84l-37.8,7.55a2.41,2.41,0,0,1-2.83-1.89l-1.18-5.9a1.21,1.21,0,0,0-1.42-.95,6,6,0,0,1-7.09-4.72c0-.08,0-.16,0-.24a6,6,0,0,1,11.8-2.35,1.55,1.55,0,0,1,0,.23l1,4.81a19.51,19.51,0,0,0-2.7,1.83l1.57,1.83c0-.05,5.57-4.64,17.65-7.05s18.93-.3,19-.27l.75-2.29a19.7,19.7,0,0,0-3.19-.66l-.94-4.7a6.12,6.12,0,0,1,4.6-7.18,6,6,0,1,1,2.57,11.77Z"/><path class="cls-2" d="M1637.82,30.78a2.42,2.42,0,0,1,1.89-2.84l37.8-7.55a2.42,2.42,0,0,1,2.84,1.89l1.18,5.91,2.36-.48-1.18-5.9A4.82,4.82,0,0,0,1677,18l-37.8,7.55a4.82,4.82,0,0,0-3.78,5.67l1.18,5.9,2.36-.47Z"/><path class="cls-2" d="M1652.47,30.31l2.36-.48.48,2.37-2.37.47Z"/><path class="cls-2" d="M1659.56,35l2.36-.47.47,2.36-2.36.47Z"/><path class="cls-2" d="M1647.75,37.39l2.36-.47.47,2.36-2.36.47Z"/><path class="cls-2" d="M1654.83,42.12l2.36-.48.48,2.37-2.37.47Z"/><path class="cls-2" d="M1664.28,28l2.37-.48.47,2.37-2.37.47Z"/><path class="cls-2" d="M1671.37,32.67l2.36-.47.47,2.36-2.36.47Z"/><path class="cls-2" d="M1666.64,39.76l2.37-.48.47,2.37-2.36.47Z"/><path class="cls-2" d="M1337.34,468.07a3.62,3.62,0,1,0,2.43,4.5A3.63,3.63,0,0,0,1337.34,468.07Zm-1.38,4.62a1.21,1.21,0,1,1,1.5-.81A1.2,1.2,0,0,1,1336,472.69Z"/><path class="cls-2" d="M1381.2,481.19a3.61,3.61,0,1,0,2.42,4.49A3.61,3.61,0,0,0,1381.2,481.19Zm-1.39,4.61a1.2,1.2,0,1,1,1.5-.81A1.21,1.21,0,0,1,1379.81,485.8Z"/><path class="cls-2" d="M1388.24,487.06a8.43,8.43,0,0,0-5.66-10.49l-.14,0a8.53,8.53,0,0,0-10.39,5.82l-1.16,3.87a60.48,60.48,0,0,0-27.7-8.28l1.19-4a8.42,8.42,0,0,0-5.66-10.49l-.31-.09a8.43,8.43,0,0,0-5.65,15.82l-1.4,4.69a4.82,4.82,0,0,0,3.23,6l-1,3.46a1.22,1.22,0,0,0,.81,1.5l3.47,1a1.19,1.19,0,0,0,1.22-.33l3.18-3.38,21.65,6.48.8,4.57a1.21,1.21,0,0,0,.84.94l3.47,1a1.2,1.2,0,0,0,1.49-.81l1-3.46a4.83,4.83,0,0,0,6-3.23l1.4-4.7A8.44,8.44,0,0,0,1388.24,487.06Zm-50.44,6.29-1.59-.48.69-2.3,2.75.82Zm30.72,9.19-1.59-.48-.47-2.65,2.75.82Zm9.91-12.12a1.21,1.21,0,0,0-1.5.81l-1.72,5.77a2.41,2.41,0,0,1-3,1.61l-36.93-11a2.41,2.41,0,0,1-1.62-3l1.73-5.77a1.21,1.21,0,0,0-.81-1.5,6,6,0,0,1-4-7.49,2,2,0,0,1,.07-.23,6,6,0,0,1,11.53,3.45l-.06.23-1.41,4.7a19.33,19.33,0,0,0-3.24.36l.53,2.35c.07,0,7.09-1.49,18.89,2s16.86,8.61,16.91,8.66l1.73-1.67a18.76,18.76,0,0,0-2.51-2.07l1.38-4.59a6.11,6.11,0,0,1,7.43-4.19,6,6,0,0,1-3.26,11.6Z"/><path class="cls-2" d="M1342.29,455.73a2.41,2.41,0,0,1,3-1.62l36.93,11a2.42,2.42,0,0,1,1.62,3l-1.73,5.77,2.31.69,1.73-5.77a4.81,4.81,0,0,0-3.24-6L1346,451.8a4.83,4.83,0,0,0-6,3.24l-1.72,5.77,2.31.69Z"/><path class="cls-2" d="M1355.45,462.18l2.31.69-.69,2.3-2.31-.69Z"/><path class="cls-2" d="M1359.5,469.67l2.3.69-.69,2.31-2.3-.69Z"/><path class="cls-2" d="M1348,466.22l2.3.69-.69,2.31-2.31-.69Z"/><path class="cls-2" d="M1352,473.71l2.31.69-.69,2.31-2.31-.69Z"/><path class="cls-2" d="M1367,465.63l2.31.69-.69,2.31-2.31-.69Z"/><path class="cls-2" d="M1371,473.12l2.3.69-.69,2.31-2.3-.69Z"/><path class="cls-2" d="M1363.54,477.16l2.31.7-.69,2.3-2.31-.69Z"/><path class="cls-2" d="M1616.85,443.05l-4.33-13.52a3.86,3.86,0,0,0-4.85-2.5l-47.41,15.18a3.86,3.86,0,0,0-2.5,4.85l4.33,13.52a4,4,0,0,0,3.64,7.1L1618,450.94a4,4,0,0,0-1.17-7.89Zm-56.62,3.22a1.27,1.27,0,0,1,.82-1.59l47.41-15.18a1.28,1.28,0,0,1,1.59.82l4.26,13.31-49.81,15.95Zm57,2.2-52.28,16.74a1.45,1.45,0,0,1-.89-2.76l52.29-16.74a1.45,1.45,0,0,1,.88,2.76Z"/><path class="cls-2" d="M1615.31,429.81l-1.08.34.8,2.47,1.07-.34c1.4-.45,1.51-.11,1.65.35l5.29,16.51c.37,1.13,0,2.7-.61,2.91l-59.65,19.1c-.73.24-2.19-.87-2.52-1.9l-5.3-16.52c-.08-.25-.25-.79,1.48-1.35l1.07-.34-.79-2.47-1.07.34a5.67,5.67,0,0,0-2.5,1.45,3.12,3.12,0,0,0-.66,3.17l5.29,16.51a5.8,5.8,0,0,0,2.17,2.81,4.12,4.12,0,0,0,3.62.77l1.07-.34,1.69,5.27,2.47-.79-1.69-5.27,53.72-17.2,1.69,5.27,2.48-.79-1.69-5.28c2.42-.84,2.85-4.14,2.21-6.14l-5.29-16.51C1619.83,430.62,1618.68,428.73,1615.31,429.81Z"/><rect class="cls-2" x="1565.8" y="448.19" width="2.77" height="2.6" transform="translate(-62.42 499.33) rotate(-17.76)"/><rect class="cls-2" x="1604.86" y="435.66" width="2.94" height="2.6" transform="translate(-56.74 510.67) rotate(-17.76)"/><rect class="cls-2" x="1585.41" y="441.91" width="2.77" height="2.6" transform="matrix(0.95, -0.3, 0.3, 0.95, -59.57, 505.01)"/><path class="cls-2" d="M1470.61,476.7a24.13,24.13,0,1,0,24.13,24.13A24.16,24.16,0,0,0,1470.61,476.7Zm2.87,42.29v-3.07h-5.75V519a18.45,18.45,0,0,1-15.23-14.94h3.36v-5.74h-3.47a18.43,18.43,0,0,1,15.34-15.64v4.15h5.75v-4.15a18.42,18.42,0,0,1,15.34,15.64H1485v5.74h3.74A18.42,18.42,0,0,1,1473.48,519Z"/><polygon class="cls-2" points="1467.73 491.42 1467.73 498.31 1458.16 498.31 1458.16 504.05 1473.48 504.05 1473.48 491.42 1467.73 491.42"/><path class="cls-2" d="M1860.53,227.23a24.84,24.84,0,1,0,14.37-32A24.86,24.86,0,0,0,1860.53,227.23Zm7,.89,3.6-1.37-2.11-5.53-3.7,1.42a19,19,0,0,1,9-20.67l1.52,4,5.53-2.1-1.52-4a19,19,0,0,1,20.48,9.42l-3.34,1.28,2.11,5.52,3.23-1.23a19,19,0,0,1-9.18,19.94l-1.12-3-5.53,2.1,1.13,3A19,19,0,0,1,1867.51,228.12Z"/><polygon class="cls-2" points="1877.53 210.39 1882.16 222.54 1896.89 216.93 1894.78 211.41 1885.58 214.91 1883.05 208.28 1877.53 210.39"/><path class="cls-2" d="M1466.22,402h0l-10.51-34.2-2.9.89,10.5,34.2-7.7,2.36,2.3,7.51,18.26-5.6-2.31-7.51-7.64,2.35Zm6.15,3.15L1459.92,409l-.52-1.7,12.45-3.83Z"/><path class="cls-2" d="M1436.7,332.76l10.32,33.6,4.64-1.42.74,2.4,2.9-.89-.74-2.4,4.58-1.41L1448.82,329Zm17.24,23.31-4.58,1.4.9,2.91,4.57-1.41.51,1.66-6.31,1.94-8.53-27.8,6.31-1.93,7.13,23.23Z"/><path class="cls-2" d="M1349.93,74.54h0l8.65-34.71-2.94-.74L1347,73.81l-7.83-2-1.89,7.62,18.53,4.62,1.9-7.62-7.77-1.94Zm3.65,5.88L1341,77.27l.43-1.73L1354,78.69Z"/><path class="cls-2" d="M1360.38,0l-8.5,34.11,4.71,1.17-.61,2.44,3,.73.6-2.44,4.65,1.16,8.5-34.11Zm2.74,28.86-4.65-1.16-.73,2.95,4.65,1.15-.42,1.69-6.41-1.6,7-28.21,6.4,1.59-5.87,23.59Z"/><path class="cls-2" d="M1760.58,137.61,1817,172.28l24.57-40-56.41-34.67Zm25.91-34.39L1836,133.64l-20.33,33.06-49.51-30.42Z"/><path class="cls-2" d="M1787.27,106.49l-17.84,29,45.46,27.93,17.84-29Zm26.29,51.37L1775,134.17l13.59-22.11,38.55,23.69-13.59,22.11Z"/><rect class="cls-2" x="1795.73" y="126.48" width="6.06" height="4.05" transform="translate(19.29 420.95) rotate(-13.42)"/><rect class="cls-2" x="1791.03" y="132.02" width="21.22" height="4.05" transform="translate(18.08 421.77) rotate(-13.42)"/><rect class="cls-2" x="1800.37" y="139.39" width="6.06" height="4.05" transform="translate(16.42 422.38) rotate(-13.42)"/><path class="cls-2" d="M1799.26,460.82a1.13,1.13,0,0,0-1.58.29,3.39,3.39,0,0,0,.18,4.1,3.34,3.34,0,0,0,1.47,1l24.1,8.63A3.41,3.41,0,0,0,1828,472a1.14,1.14,0,1,0-2.27-.22,1.14,1.14,0,0,1-.9,1,1.08,1.08,0,0,1-.59,0l-24.11-8.62a1.17,1.17,0,0,1-.48-.34,1.11,1.11,0,0,1-.06-1.35,1.14,1.14,0,0,0-.29-1.59Z"/><path class="cls-2" d="M1819.07,513.58l2.26-34.63.57.2a8,8,0,0,0,10.63-7.53l-.08-11.65a1.14,1.14,0,0,0-2.28,0l.08,11.65a5.67,5.67,0,0,1-7.58,5.38l-24.11-8.63a5.67,5.67,0,0,1-2.45-9l15.47-18.58a8.5,8.5,0,0,1,9.38-2.56l3.51,1.25a8.49,8.49,0,0,1,5.62,7.93l.05,8a1.14,1.14,0,0,0,2.28,0l-.05-8a10.78,10.78,0,0,0-7.14-10.05l-3.5-1.26a10.81,10.81,0,0,0-11.9,3.25L1794.36,458a7.93,7.93,0,0,0,3.43,12.56h0l-12.28,17.11a1.14,1.14,0,0,0,.26,1.59,1.51,1.51,0,0,0,.28.15,1.16,1.16,0,0,0,1.31-.41L1800,471.32l3,1.09-22.9,28.21a.45.45,0,0,1-.52.15.48.48,0,0,1-.29-.3.47.47,0,0,1,.07-.41l5.46-7.61a1.14,1.14,0,0,0-1.85-1.32l-5.46,7.6a2.74,2.74,0,0,0,1.31,4.18,2.75,2.75,0,0,0,3.05-.85l10.88-13.4.23-.06,13.13-4.6,7.51,11.66,0,0-.1,17.7a2.75,2.75,0,0,0,1.82,2.6,2.74,2.74,0,0,0,3.66-2.41Zm-14.13-39.88,1.81,3.12-2.06.68-1.26-1.94Zm2.87.41,3.42,1.22-2.27.76Zm.11,4.72,1,1.78-1.85.65-1.14-1.78Zm3.22,1-1-1.74,3.67-1.22v2Zm-15.64,5.48,6.42-7.9,3,4.61Zm12.87-2.09,5.41-1.9-.06,10.2Zm8.22,30.57a.44.44,0,0,1-.41.05.48.48,0,0,1-.31-.45l.21-36.33,3,1.08-2.3,35.29a.47.47,0,0,1-.21.36Z"/><path class="cls-2" d="M1553.5,296.2a.84.84,0,0,0-1.12.39,2.5,2.5,0,0,0,1.76,3.54l18.45,3.65a2.44,2.44,0,0,0,1.31-.1,2.5,2.5,0,0,0,1.66-2.48.84.84,0,0,0-1.67.09.83.83,0,0,1-.55.82.79.79,0,0,1-.43,0l-18.45-3.65a.82.82,0,0,1-.58-1.17.83.83,0,0,0-.38-1.12Z"/><path class="cls-2" d="M1573.63,332.38,1571.5,307l.44.09a5.93,5.93,0,0,0,3.07-.22,5.85,5.85,0,0,0,3.83-6.41l-1.32-8.45a.84.84,0,1,0-1.66.26l1.33,8.45a4.18,4.18,0,0,1-2.73,4.57,4.23,4.23,0,0,1-2.2.16l-18.45-3.65a4.13,4.13,0,0,1-2-1,4.18,4.18,0,0,1-.78-5.27l9.22-15.18a6.27,6.27,0,0,1,6.53-2.88l2.68.53a6.26,6.26,0,0,1,5,5.15l.91,5.79a.84.84,0,1,0,1.65-.26l-.91-5.78a7.94,7.94,0,0,0-6.27-6.54l-2.68-.53a7.93,7.93,0,0,0-8.29,3.66l-9.22,15.18a5.83,5.83,0,0,0,3.86,8.75h0l-7.06,13.77a.84.84,0,0,0,1.49.76l7.28-14.19,2.32.46-13.57,23a.34.34,0,0,1-.36.16.33.33,0,0,1-.24-.49l3.13-6.12a.82.82,0,0,0-.36-1.12.83.83,0,0,0-1.12.36l-3.14,6.12a2,2,0,0,0,1.4,2.89,2,2,0,0,0,2.13-.95l6.44-10.92a.44.44,0,0,0,.16-.06l9-4.77,6.73,7.65v0l1.85,12.87a2,2,0,0,0,4-.45ZM1559,304.94l1.66,2.07-1.43.72-1.12-1.28Zm2.13,0,2.62.51-1.57.8Zm.6,3.41.94,1.18-1.27.68-1-1.17Zm2.45.39-.93-1.16,2.54-1.28.21,1.48Zm-10.76,5.68,3.8-6.44,2.66,3Zm9.11-2.92,3.72-2,1.07,7.42Zm9.3,21.31a.35.35,0,0,1-.3.08.34.34,0,0,1-.27-.29l-3.8-26.41,2.32.46,2.16,25.88a.37.37,0,0,1-.11.28Z"/><path class="cls-2" d="M1502.59,17.73l-65.7,24.57a1.19,1.19,0,0,0-.69,1.51l1.64,4.38a1.17,1.17,0,0,0,1.51.68L1450,77.33a1.18,1.18,0,0,0,1.51.69l3.28-1.23a1.17,1.17,0,0,0,.69-1.5l-10.66-28.47L1481,33.3l10.65,28.47a1.17,1.17,0,0,0,1.51.68l21.9-8.19a1.17,1.17,0,0,0,.68-1.5l-10.65-28.47a1.16,1.16,0,0,0,.68-1.5l-1.63-4.38A1.17,1.17,0,0,0,1502.59,17.73ZM1438.8,44.08l63.52-23.76.81,2.19-63.51,23.76ZM1452.88,75l-1.1.41-10.24-27.37,1.09-.41Zm56.53-32.38L1489.7,50l-2.86-7.66L1506.55,35Zm3.69,9.85-19.71,7.37-2.87-7.66,19.71-7.37Zm-7.37-19.7L1486,40.15l-2.87-7.66,19.71-7.38Z"/><path class="cls-2" d="M1670.51,517.85a.94.94,0,0,0-.82,1l.68,5.65a1,1,0,0,0,1.06.83l2-.25,4.37,13.59a1,1,0,0,0,1,.65l4.24-.52a.94.94,0,0,0,.82-1.06.93.93,0,0,0-1-.82l-3.46.42-4-12.5,20.31-2.47-.89,13.09-3.46.42a1,1,0,0,0,.23,1.89l4.23-.52a1,1,0,0,0,.83-.88l1-14.24,2.05-.25a.93.93,0,0,0,.82-1l-.69-5.65a1,1,0,0,0-1-.83L1694,515a12.34,12.34,0,0,0,4.46-11.05,1,1,0,0,0-1.06-.83l-2.82.35a12.32,12.32,0,0,0-9.66,7l-1.23-10.05,1.89-.23a9.49,9.49,0,0,0,8.26-10.56.94.94,0,0,0-1.06-.82l-2.82.34a9.48,9.48,0,0,0-8.26,10.56l.07.57a9.46,9.46,0,0,0-8-2.85l-5.65.69a1,1,0,0,0-.83,1.05l.35,2.83a9.49,9.49,0,0,0,10.56,8.26l4.71-.58.8,6.59ZM1690.16,491l1.82-.22a7.59,7.59,0,0,1-6.66,7.5l-1.83.22A7.62,7.62,0,0,1,1690.16,491Zm7.88,25.4.46,3.76-26.36,3.22-.46-3.76Zm-3.26-11.06,1.84-.23a10.45,10.45,0,0,1-9.17,10.67l-1.84.23A10.45,10.45,0,0,1,1694.78,505.34Zm-25.28-3.6-.23-1.88,4.71-.58a7.6,7.6,0,0,1,8.45,6.61l.23,1.88-4.71.58A7.6,7.6,0,0,1,1669.5,501.74Z"/><circle class="cls-2" cx="1687.23" cy="537.39" r="0.95"/><path class="cls-2" d="M1359.31,266.07a.74.74,0,0,0-.58.87l.89,4.32a.74.74,0,0,0,.87.57l1.56-.32,4.24,10.22a.72.72,0,0,0,.82.44l3.25-.66a.75.75,0,0,0,.57-.87.73.73,0,0,0-.87-.57l-2.65.54-3.89-9.4,15.54-3.19.13,10.17-2.65.55a.73.73,0,1,0,.3,1.43l3.24-.66a.73.73,0,0,0,.58-.73l-.14-11.07,1.57-.32a.73.73,0,0,0,.57-.86l-.89-4.32a.73.73,0,0,0-.86-.58l-3.66.76a9.56,9.56,0,0,0,2.75-8.82.73.73,0,0,0-.87-.57l-2.16.44a9.54,9.54,0,0,0-7,6l-1.58-7.69,1.44-.29a7.36,7.36,0,0,0,5.72-8.68.74.74,0,0,0-.86-.57l-2.16.44a7.37,7.37,0,0,0-5.73,8.68l.09.44a7.32,7.32,0,0,0-6.35-1.7l-4.32.88a.73.73,0,0,0-.57.87l.44,2.16a7.37,7.37,0,0,0,8.68,5.72l3.6-.74,1,5Zm13.49-22,1.4-.28a5.89,5.89,0,0,1-4.68,6.21l-1.4.29A5.89,5.89,0,0,1,1372.8,244.09Zm7.68,19.13.59,2.88-20.16,4.14-.59-2.88Zm-3.21-8.34,1.41-.29a8.11,8.11,0,0,1-6.41,8.82l-1.41.29A8.09,8.09,0,0,1,1377.27,254.88Zm-19.76-1.2-.29-1.44,3.6-.74a5.89,5.89,0,0,1,6.94,4.58l.3,1.44-3.6.74A5.89,5.89,0,0,1,1357.51,253.68Z"/><circle class="cls-2" cx="1373.45" cy="280.12" r="0.73"/><path class="cls-2" d="M1802.71,17.25a.94.94,0,0,0-1.33.16l-3.5,4.48a.94.94,0,0,0,.16,1.33l1.62,1.27-6.52,12.7a1,1,0,0,0,.26,1.18l3.36,2.63a1,1,0,0,0,1.34-.16.94.94,0,0,0-.17-1.33l-2.74-2.15,6-11.68,16.12,12.61-9.9,8.62-2.75-2.15a1,1,0,0,0-1.33.17.94.94,0,0,0,.17,1.33l3.36,2.63a1,1,0,0,0,1.2,0l10.77-9.38,1.62,1.27a.94.94,0,0,0,1.33-.17l3.51-4.48a1,1,0,0,0-.16-1.33l-3.8-3a12.32,12.32,0,0,0,11-4.67,1,1,0,0,0-.16-1.33l-2.24-1.75a12.37,12.37,0,0,0-11.77-1.89l6.24-8,1.5,1.17a9.5,9.5,0,0,0,13.31-1.62,1,1,0,0,0-.17-1.34l-2.24-1.75a9.49,9.49,0,0,0-13.31,1.63l-.35.45a9.51,9.51,0,0,0-3.64-7.67L1815,1.57a1,1,0,0,0-1.33.16L1811.9,4a9.5,9.5,0,0,0,1.62,13.31l3.74,2.92-4.09,5.23Zm32.89-5.1,1.44,1.14a7.6,7.6,0,0,1-10,.59l-1.44-1.14A7.62,7.62,0,0,1,1835.6,12.15Zm-12.4,23.53-2.34,3L1800,22.31l2.34-3Zm5.52-10.13,1.46,1.15a10.44,10.44,0,0,1-14,1.06l-1.46-1.14A10.45,10.45,0,0,1,1828.72,25.55ZM1813.39,5.14l1.17-1.49,3.74,2.92a7.59,7.59,0,0,1,1.3,10.64l-1.17,1.5-3.74-2.92A7.61,7.61,0,0,1,1813.39,5.14Z"/><circle class="cls-2" cx="1800.71" cy="42.88" r="0.95"/><path class="cls-2" d="M1678.52,229.75a.78.78,0,0,0,.63-.91l-.24-1.29a.78.78,0,1,0-1.54.29l.23,1.28A.79.79,0,0,0,1678.52,229.75Z"/><path class="cls-2" d="M1659.35,233.27a.77.77,0,0,0,.63-.91l-.23-1.29a.79.79,0,0,0-1.55.29l.24,1.28A.78.78,0,0,0,1659.35,233.27Z"/><path class="cls-2" d="M1663,241.37a.78.78,0,1,0,1-1.23,4.76,4.76,0,0,1-1.8-2.87c-.58-3.13,2.36-6.3,6.54-7.07s8.06,1.15,8.64,4.28-2.36,6.3-6.55,7.07a9.63,9.63,0,0,1-4.45-.2.78.78,0,1,0-.45,1.5,11.13,11.13,0,0,0,5.18.25c5-.93,8.55-4.92,7.81-8.91s-5.42-6.46-10.46-5.54-8.54,4.92-7.81,8.9A6.29,6.29,0,0,0,1663,241.37Z"/><path class="cls-2" d="M1670.17,238.21c2.46-.46,4.11-2.3,3.76-4.21s-2.55-3-5-2.59-4.12,2.3-3.77,4.21S1667.7,238.66,1670.17,238.21Zm-1-5.25c1.54-.28,3,.33,3.18,1.33s-1,2.09-2.5,2.37-3-.33-3.18-1.33S1667.66,233.24,1669.2,233Z"/><path class="cls-2" d="M1695.07,252.52a7.32,7.32,0,0,0-.51-6.65,25.68,25.68,0,0,0-8.6-8.2,12.71,12.71,0,0,0,.47-6.92,17.12,17.12,0,0,0-2.9-6.86,3.79,3.79,0,0,0-3.37-6.41,3.74,3.74,0,0,0-2.25,1.33,14.78,14.78,0,0,0-1.43-.73,5.37,5.37,0,0,1,9.13,5.6.79.79,0,0,0,.33,1.06.76.76,0,0,0,1.06-.33,6.94,6.94,0,0,0-12-6.92,17.34,17.34,0,0,0-16.7,3.07,6.94,6.94,0,1,0-6.22,12.18,16.76,16.76,0,0,0,.25,4.28,12.62,12.62,0,0,0,2.89,6.29,25.84,25.84,0,0,0-5.12,10.73,7.32,7.32,0,0,0,1.89,6.4,8.51,8.51,0,0,0,9,11.95,8.15,8.15,0,0,0,4.48-2.46c2.71.62,6,.53,10.44-.28s7.54-1.91,9.84-3.45a8.19,8.19,0,0,0,5.07.71,8.09,8.09,0,0,0,3.8-1.81.79.79,0,0,0,.09-1.11.78.78,0,0,0-1.11-.08,6.59,6.59,0,0,1-3.06,1.45,6.9,6.9,0,1,1,5.35-8,6.9,6.9,0,0,1-.58,4.34.78.78,0,0,0,.36,1.05.8.8,0,0,0,1.06-.36,8.63,8.63,0,0,0-1.7-9.87Zm-12-31.71a2.2,2.2,0,0,1-.48,1.82,17.48,17.48,0,0,0-3.29-3,2.1,2.1,0,0,1,1.18-.63A2.21,2.21,0,0,1,1683,220.81Zm-34.17,6.27a5.37,5.37,0,0,1,8.25-5.44c-.38.38-.74.78-1.08,1.19a3.79,3.79,0,1,0-3.45,6.74c-.13.52-.24,1-.33,1.57A5.34,5.34,0,0,1,1648.86,227.08Zm4.19,1a2.22,2.22,0,0,1,.69-4.12,2.24,2.24,0,0,1,1.33.17A17.13,17.13,0,0,0,1653.05,228.05Zm13.47-9.67A15.79,15.79,0,0,1,1684.88,231c.72,3.93-.22,7.15-2.8,9.58-2.32,2.18-5.89,3.73-10.63,4.59s-8.62.7-11.56-.51c-3.28-1.35-5.3-4-6-8A15.8,15.8,0,0,1,1666.52,218.38Zm12.17,30.94a6.65,6.65,0,0,1-2.94-.27,4.15,4.15,0,0,0,.25-2.35,4.47,4.47,0,0,0-.27-.9,25,25,0,0,0,3.5-1.38C1679.4,244.91,1680.78,248.93,1678.69,249.32Zm-14.79-2.08a24.61,24.61,0,0,0,3.76,0,4.3,4.3,0,0,0,.07.94,4.13,4.13,0,0,0,1.07,2.11,6.76,6.76,0,0,1-2.65,1.29C1664.06,252,1663.92,247.75,1663.9,247.24Zm5.38.69a2.69,2.69,0,0,1,0-.8c.81-.09,1.64-.21,2.49-.37s1.67-.33,2.45-.53a2.23,2.23,0,0,1,.26.75,2.63,2.63,0,0,1-5.17,1Zm-17.64,6.41a24.06,24.06,0,0,1,4.71-9.93,12.16,12.16,0,0,0,1.55,1.07,40.46,40.46,0,0,0-1.23,10.6,8.18,8.18,0,0,0-3.86,2.93A5.75,5.75,0,0,1,1651.64,254.34Zm1.25,10.93a6.72,6.72,0,1,1,7.85,5.57A6.83,6.83,0,0,1,1652.89,265.27Zm28.29-5.2a8.52,8.52,0,0,0,3.13,5.2,33.94,33.94,0,0,1-17.74,3.26,8.6,8.6,0,0,0,1.08-6,8.41,8.41,0,0,0-9.42-6.88,39.1,39.1,0,0,1,1.12-9.5,15.06,15.06,0,0,0,3,.84c0,.62-.1,6.92,4.12,6.15a8.59,8.59,0,0,0,3.68-1.89,4.27,4.27,0,0,0,2.51.31,4.21,4.21,0,0,0,2.23-1.18,8.4,8.4,0,0,0,4.11.45c4.3-.79,1.89-6.63,1.66-7.2a15.39,15.39,0,0,0,2.48-1.85,38.65,38.65,0,0,1,4.42,8.49A8.39,8.39,0,0,0,1681.18,260.07Zm8-10a40.39,40.39,0,0,0-4.93-9.47,10,10,0,0,0,1.07-1.55,24.12,24.12,0,0,1,7.94,7.61,5.75,5.75,0,0,1,.57,4.78A8.23,8.23,0,0,0,1689.14,250.11Z"/><path class="cls-2" d="M1658.58,259.09a5.05,5.05,0,1,0,5.89,4.05A5.06,5.06,0,0,0,1658.58,259.09Zm1.55,8.39a3.48,3.48,0,1,1,2.79-4.05A3.49,3.49,0,0,1,1660.13,267.48Z"/><path class="cls-2" d="M1688.42,253.6a5.06,5.06,0,1,0,5.88,4.06A5.06,5.06,0,0,0,1688.42,253.6ZM1690,262a3.48,3.48,0,1,1,2.8-4.05A3.48,3.48,0,0,1,1690,262Z"/><path class="cls-2" d="M1889.73,322.65a.66.66,0,0,0,.83-.43l.32-1.05a.65.65,0,0,0-.43-.82.64.64,0,0,0-.82.43l-.33,1A.66.66,0,0,0,1889.73,322.65Z"/><path class="cls-2" d="M1874.14,317.78a.67.67,0,0,0,.83-.44l.33-1a.66.66,0,0,0-1.26-.4l-.33,1.05A.67.67,0,0,0,1874.14,317.78Z"/><path class="cls-2" d="M1873.67,325.19a.65.65,0,0,0,.87.34.66.66,0,0,0,.33-.87,4,4,0,0,1-.22-2.83c.8-2.55,4.22-3.75,7.62-2.69s5.53,4,4.73,6.55-4.21,3.75-7.62,2.68a8.05,8.05,0,0,1-3.21-1.88.66.66,0,1,0-.93.94,9.35,9.35,0,0,0,3.75,2.2c4.1,1.28,8.26-.31,9.27-3.55s-1.5-6.91-5.59-8.2-8.26.32-9.27,3.55A5.24,5.24,0,0,0,1873.67,325.19Z"/><path class="cls-2" d="M1880.23,325.66c2,.62,4-.1,4.44-1.65s-.71-3.25-2.71-3.88-4,.1-4.43,1.65S1878.23,325,1880.23,325.66Zm1.34-4.27c1.25.39,2.09,1.41,1.84,2.23s-1.53,1.17-2.78.78-2.1-1.41-1.84-2.23S1880.32,321,1881.57,321.39Z"/><path class="cls-2" d="M1893.11,346a6.13,6.13,0,0,0,2.21-5.13,21.52,21.52,0,0,0-3.16-9.45,10.57,10.57,0,0,0,3-4.94,14.41,14.41,0,0,0,.54-6.22,3.18,3.18,0,0,0,0-6.07,3.09,3.09,0,0,0-2.18.11c-.24-.38-.5-.74-.78-1.1a4.5,4.5,0,0,1,4.58,7.72.66.66,0,0,0-.16.92.63.63,0,0,0,.91.16,5.81,5.81,0,0,0-6.2-9.82,14.55,14.55,0,0,0-13.58-4.25,5.82,5.82,0,1,0-9.38,6.6,14.58,14.58,0,0,0-1.49,3.28,10.63,10.63,0,0,0-.31,5.79,21.55,21.55,0,0,0-8,6,6.15,6.15,0,0,0-1.1,5.48,7.12,7.12,0,0,0-2.47,3.54,7,7,0,0,0,4.51,8.85,6.76,6.76,0,0,0,4.29-.07,28.28,28.28,0,0,0,16.49,5.16,6.83,6.83,0,0,0,7,2.65.66.66,0,0,0-.29-1.29,5.48,5.48,0,0,1-2.84-.12,5.78,5.78,0,1,1,7.1-3.83,5.84,5.84,0,0,1-2.13,3,.65.65,0,0,0-.14.92.66.66,0,0,0,.92.15,7.25,7.25,0,0,0,2.6-8Zm3.46-28.22a1.83,1.83,0,0,1-1.06,1.16,14.91,14.91,0,0,0-1.28-3.49,1.86,1.86,0,0,1,2.34,2.33Zm-27.79-8.69a4.5,4.5,0,0,1,5.64-2.95,4.42,4.42,0,0,1,2.6,2.13c-.42.14-.85.29-1.26.46a3.18,3.18,0,1,0-5.19,3.65c-.3.33-.59.68-.86,1A4.48,4.48,0,0,1,1868.78,309.09Zm2.73,2.35a1.88,1.88,0,0,1-.21-1.57,1.86,1.86,0,0,1,2.33-1.21,1.78,1.78,0,0,1,.92.64A14.9,14.9,0,0,0,1871.51,311.44Zm13.77-1.91a13.25,13.25,0,0,1,8.67,16.56,8.29,8.29,0,0,1-5.83,6c-2.57.71-5.82.46-9.67-.74s-6.67-2.86-8.37-4.9a8.32,8.32,0,0,1-1.36-8.26A13.24,13.24,0,0,1,1885.28,309.53Zm-3.07,27.69a5.54,5.54,0,0,1-2.07-1.34,3.52,3.52,0,0,0,1.1-1.65,3.39,3.39,0,0,0,.15-.77,19.91,19.91,0,0,0,3.14.34C1884.46,334.23,1883.92,337.76,1882.21,337.22Zm-10.15-7.32a18.56,18.56,0,0,0,2.77,1.5,3.64,3.64,0,0,0-.31.73,3.52,3.52,0,0,0,0,2A5.56,5.56,0,0,1,1872,334C1870.31,333.5,1871.87,330.29,1872.06,329.9Zm3.72,2.62a1.86,1.86,0,0,1,.29-.6c.63.25,1.29.48,2,.69s1.37.41,2,.57a2.21,2.21,0,1,1-4.31-.66Zm-15.59-2.14a20.19,20.19,0,0,1,7.38-5.52,8.89,8.89,0,0,0,.73,1.4,33.42,33.42,0,0,0-5.06,7.38,6.83,6.83,0,0,0-4,.66A4.87,4.87,0,0,1,1860.19,330.38Zm-3.34,8.6a5.63,5.63,0,1,1,3.64,7.2A5.71,5.71,0,0,1,1856.85,339Zm23,7.19a7.13,7.13,0,0,0,.29,5.08,22.25,22.25,0,0,1-7.52-1.28,22.52,22.52,0,0,1-6.92-3.23,7.14,7.14,0,0,0,3.14-4,7,7,0,0,0-4.29-8.78,32.83,32.83,0,0,1,4.54-6.61,12.28,12.28,0,0,0,1.87,1.79c-.24.45-2.78,5.09.65,6.16a7.11,7.11,0,0,0,3.47,0,3.51,3.51,0,0,0,1.74,1.21,3.45,3.45,0,0,0,2.11,0,7.11,7.11,0,0,0,2.88,1.94c3.49,1.09,4-4.18,4-4.69a12.8,12.8,0,0,0,2.56-.41,32.65,32.65,0,0,1,0,8A7,7,0,0,0,1879.86,346.17Zm9.79-4.28a33.82,33.82,0,0,0,0-8.94,9.77,9.77,0,0,0,1.4-.73A20.19,20.19,0,0,1,1894,341a4.81,4.81,0,0,1-1.45,3.76A6.91,6.91,0,0,0,1889.65,341.89Z"/><path class="cls-2" d="M1863.49,336.61a4.24,4.24,0,1,0,2.78,5.31A4.25,4.25,0,0,0,1863.49,336.61Zm-2.14,6.83a2.92,2.92,0,1,1,3.66-1.91A2.9,2.9,0,0,1,1861.35,343.44Z"/><path class="cls-2" d="M1887.75,344.2a4.24,4.24,0,1,0,2.78,5.31A4.24,4.24,0,0,0,1887.75,344.2Zm-2.14,6.83a2.92,2.92,0,1,1,3.66-1.91A2.93,2.93,0,0,1,1885.61,351Z"/><path class="cls-2" d="M1739.42,316.79l-49.31,12.71a6.36,6.36,0,0,0-4.57,7.75l15.25,59.16a3.82,3.82,0,0,0,4.65,2.74l1,3.7a1.26,1.26,0,0,0,1.55.91l51.77-13.34a1.27,1.27,0,0,0,.91-1.55l-1-3.7a3.83,3.83,0,0,0,2.75-4.65l-15.26-59.15A6.38,6.38,0,0,0,1739.42,316.79ZM1690.75,332l49.3-12.71a3.82,3.82,0,0,1,4.66,2.74l2.22,8.63-56.7,14.62-2.23-8.63A3.81,3.81,0,0,1,1690.75,332Zm67.1,56.3L1708.54,401l-.63-2.46,49.3-12.71Zm1.19-5.56-54.23,14a1.28,1.28,0,0,1-1.55-.92l-12.4-48.06,56.71-14.62L1760,381.16A1.27,1.27,0,0,1,1759,382.71Z"/><path class="cls-2" d="M1693.29,341.83l14.79-3.82a1.28,1.28,0,0,0,.92-1.55l-1.28-4.92a1.26,1.26,0,0,0-1.55-.92l-14.79,3.81a1.27,1.27,0,0,0-.91,1.55l1.27,4.93A1.28,1.28,0,0,0,1693.29,341.83Zm0-5.25,12.33-3.18.63,2.47L1693.89,339Z"/><path class="cls-2" d="M1715.48,336.11a3.82,3.82,0,1,0-4.65-2.75A3.82,3.82,0,0,0,1715.48,336.11Zm-1.27-4.93a1.27,1.27,0,1,1-.92,1.55A1.27,1.27,0,0,1,1714.21,331.18Z"/><path class="cls-2" d="M1725.34,333.57a3.82,3.82,0,1,0-4.65-2.75A3.82,3.82,0,0,0,1725.34,333.57Zm-1.27-4.93a1.27,1.27,0,1,1-.92,1.55A1.27,1.27,0,0,1,1724.07,328.64Z"/><path class="cls-2" d="M1732.1,329.2l2.46-.64a1.28,1.28,0,0,0,.92-1.55,1.27,1.27,0,0,0-1.55-.91l-2.47.63a1.28,1.28,0,0,0,.64,2.47Z"/><path class="cls-2" d="M1739.5,327.29l2.46-.64a1.27,1.27,0,1,0-.64-2.46l-2.46.63a1.28,1.28,0,1,0,.64,2.47Z"/><path class="cls-2" d="M1720.48,345.33A20.37,20.37,0,1,0,1745.29,360,20.36,20.36,0,0,0,1720.48,345.33Zm9.54,37a17.81,17.81,0,1,1,12.81-21.7A17.82,17.82,0,0,1,1730,382.3Z"/><path class="cls-2" d="M1721.44,349a16.52,16.52,0,0,0-11.9,20.12,16.34,16.34,0,0,0,2.78,5.79l0,.08.07.06a16.54,16.54,0,0,0,29.69-9.87v-.07a16.49,16.49,0,0,0-16.31-16.65A16.78,16.78,0,0,0,1721.44,349Zm.63,2.46a14,14,0,0,1,17,10,14.59,14.59,0,0,1,.45,3.08,18.85,18.85,0,0,0-1.7,1.23,11.58,11.58,0,0,1-4.86,2.59,8.58,8.58,0,0,1-4.66,0,11.09,11.09,0,0,0-5.83.06,33.28,33.28,0,0,0-8.75,4.09,14,14,0,0,1,8.31-21.07Zm7,27.12a14.06,14.06,0,0,1-13.75-4,30.33,30.33,0,0,1,7.82-3.66,8.71,8.71,0,0,1,4.67,0,11.19,11.19,0,0,0,5.83-.05,13.85,13.85,0,0,0,5.61-2.92A14,14,0,0,1,1729.07,378.61Z"/><rect class="cls-3" y="0.07" width="1920" height="539.86"/><text class="cls-4" transform="translate(1241.4 227.86)">내 맘대로! </text><text class="cls-4" transform="translate(1241.4 339.86)">내 방대로! </text><text class="cls-5" transform="translate(1245.4 397.86)">27가지 질문으로 나의 인테리어를 뽑는다</text></g></g></svg>